<svg xmlns="http://www.w3.org/2000/svg" xmlns:xlink="http://www.w3.org/1999/xlink" width="500" zoomAndPan="magnify" viewBox="0 0 375 374.999991" height="500" preserveAspectRatio="xMidYMid meet" version="1.0"><defs><clipPath id="f9e1f76a51"><path d="M 254 275 L 373.5 275 L 373.5 375 L 254 375 Z M 254 275 " clip-rule="nonzero"/></clipPath></defs><path fill="#ff0020" d="M 32.929688 310.445312 L 24.175781 306.699219 C 23.800781 306.574219 23.550781 306.324219 23.425781 306.074219 L 22.175781 305.574219 C 21.175781 305.324219 20.425781 305.574219 20.050781 306.324219 L 1.039062 349.179688 C -1.839844 356.175781 1.414062 364.546875 8.667969 367.921875 C 15.296875 370.921875 24.050781 367.421875 27.054688 360.800781 L 45.9375 317.691406 C 46.0625 317.195312 46.1875 316.195312 45.4375 316.070312 C 45.3125 315.945312 45.1875 315.945312 45.1875 315.945312 Z M 32.929688 310.445312 " fill-opacity="1" fill-rule="evenodd"/><path fill="#203b66" d="M 27.179688 304.074219 L 36.683594 308.324219 L 42.8125 310.945312 L 49.691406 295.203125 L 48.691406 294.828125 C 46.0625 294.203125 43.8125 293.328125 41.8125 292.453125 C 41.8125 292.453125 41.8125 292.328125 41.6875 292.328125 L 40.5625 291.828125 C 38.433594 290.703125 36.308594 289.582031 34.308594 288.457031 L 34.058594 288.207031 Z M 27.179688 304.074219 " fill-opacity="1" fill-rule="evenodd"/><path fill="#203b66" d="M 43.1875 289.332031 C 45.3125 290.207031 47.3125 290.953125 49.441406 291.578125 C 50.441406 291.828125 51.316406 291.953125 52.316406 292.078125 C 52.691406 292.203125 52.941406 292.328125 53.191406 292.578125 C 79.332031 298.453125 106.972656 285.207031 117.980469 259.96875 C 119.355469 256.84375 120.355469 253.722656 121.105469 250.597656 L 121.105469 250.472656 C 121.105469 250.222656 121.230469 249.972656 121.355469 249.722656 C 127.359375 223.859375 114.226562 196.371094 88.964844 185.25 C 81.457031 182.003906 73.703125 180.503906 66.074219 180.503906 C 57.445312 180.503906 48.816406 182.503906 41.0625 186.25 C 40.8125 186.375 40.5625 186.625 40.308594 186.625 C 28.804688 192.371094 19.296875 201.992188 13.796875 214.613281 C 2.539062 240.726562 12.542969 270.964844 36.058594 285.582031 C 38.058594 286.707031 40.058594 287.832031 42.1875 288.832031 Z M 65.699219 286.832031 C 58.195312 286.832031 50.816406 285.207031 44.0625 281.832031 C 32.054688 276.085938 23.175781 265.964844 19.046875 253.597656 C 14.546875 240.976562 15.421875 227.484375 21.300781 215.488281 C 27.054688 203.617188 37.308594 194.746094 49.941406 190.5 C 62.199219 186.125 75.582031 186.875 87.460938 192.621094 C 99.46875 198.371094 108.347656 208.492188 112.601562 220.984375 C 116.980469 233.605469 116.230469 247.097656 110.351562 259.09375 C 104.597656 270.964844 94.464844 279.835938 82.085938 284.082031 C 76.832031 285.957031 71.203125 286.832031 65.699219 286.832031 Z M 65.699219 286.832031 " fill-opacity="1" fill-rule="evenodd"/><path fill="#203b66" d="M 45.5625 278.835938 C 56.695312 284.332031 69.328125 285.082031 81.082031 280.960938 C 92.714844 276.960938 102.09375 268.714844 107.472656 257.71875 C 112.851562 246.472656 113.601562 233.855469 109.601562 222.109375 C 105.597656 210.488281 97.34375 201.117188 86.210938 195.746094 C 79.707031 192.621094 72.953125 191.125 66.199219 191.125 C 61.070312 191.125 55.945312 191.996094 51.066406 193.746094 C 39.308594 197.621094 29.804688 205.992188 24.300781 216.988281 C 18.796875 228.230469 18.171875 240.726562 22.300781 252.472656 C 26.175781 264.089844 34.433594 273.460938 45.5625 278.835938 Z M 66.074219 268.214844 C 61.199219 268.214844 57.195312 264.339844 57.195312 259.71875 L 57.195312 214.863281 C 57.195312 210.238281 61.199219 206.367188 66.074219 206.367188 C 70.703125 206.367188 74.453125 210.113281 74.453125 214.863281 L 74.453125 259.71875 C 74.453125 264.464844 70.703125 268.214844 66.074219 268.214844 Z M 79.457031 259.71875 L 79.457031 214.863281 C 79.457031 210.238281 83.460938 206.367188 88.335938 206.367188 C 93.089844 206.367188 96.71875 210.113281 96.71875 214.863281 L 96.71875 259.71875 C 96.71875 264.464844 93.089844 268.214844 88.335938 268.214844 C 83.460938 268.214844 79.457031 264.339844 79.457031 259.71875 Z M 52.191406 214.863281 L 52.191406 259.71875 C 52.191406 264.464844 48.441406 268.214844 43.8125 268.214844 C 38.808594 268.214844 34.933594 264.339844 34.933594 259.71875 L 34.933594 214.863281 C 34.933594 210.238281 38.808594 206.367188 43.8125 206.367188 C 48.441406 206.367188 52.191406 210.113281 52.191406 214.863281 Z M 52.191406 214.863281 " fill-opacity="1" fill-rule="evenodd"/><path fill="#ff0020" d="M 60.570312 259.71875 C 60.570312 262.46875 63.074219 264.839844 66.074219 264.839844 C 68.953125 264.839844 71.078125 262.59375 71.078125 259.71875 L 71.078125 214.863281 C 71.078125 211.988281 68.953125 209.742188 66.074219 209.742188 C 63.074219 209.742188 60.570312 212.113281 60.570312 214.863281 Z M 60.570312 259.71875 " fill-opacity="1" fill-rule="evenodd"/><path fill="#ff0020" d="M 48.816406 259.71875 L 48.816406 214.863281 C 48.816406 211.988281 46.5625 209.742188 43.8125 209.742188 C 40.8125 209.742188 38.308594 212.113281 38.308594 214.863281 L 38.308594 259.71875 C 38.308594 262.46875 40.8125 264.839844 43.8125 264.839844 C 46.5625 264.839844 48.816406 262.59375 48.816406 259.71875 Z M 48.816406 259.71875 " fill-opacity="1" fill-rule="evenodd"/><path fill="#ff0020" d="M 82.835938 214.863281 L 82.835938 259.71875 C 82.835938 262.46875 85.335938 264.839844 88.335938 264.839844 C 91.214844 264.839844 93.339844 262.59375 93.339844 259.71875 L 93.339844 214.863281 C 93.339844 211.988281 91.214844 209.742188 88.335938 209.742188 C 85.335938 209.742188 82.835938 212.113281 82.835938 214.863281 Z M 82.835938 214.863281 " fill-opacity="1" fill-rule="evenodd"/><path fill="#203b66" d="M 124.234375 252.222656 C 123.484375 255.21875 122.355469 258.34375 121.105469 261.21875 C 114.976562 275.210938 104.097656 286.082031 90.339844 292.078125 L 250.679688 292.078125 L 250.679688 279.585938 C 250.679688 275.460938 253.808594 272.339844 257.808594 272.339844 L 365.121094 272.339844 L 365.121094 42.5625 C 365.121094 32.441406 356.617188 24.070312 346.609375 24.070312 L 322.597656 24.070312 L 322.597656 41.3125 L 324.722656 41.3125 C 334.226562 41.3125 341.980469 48.808594 341.980469 58.054688 L 341.980469 235.355469 C 341.980469 244.726562 334.226562 252.222656 324.722656 252.222656 Z M 179.140625 285.457031 C 172.386719 285.457031 166.132812 279.210938 166.132812 272.339844 C 166.132812 265.339844 172.136719 259.34375 179.140625 259.34375 C 186.394531 259.34375 192.273438 265.214844 192.273438 272.339844 C 192.273438 279.460938 186.269531 285.457031 179.140625 285.457031 Z M 179.140625 285.457031 " fill-opacity="1" fill-rule="evenodd"/><path fill="#ff0020" d="M 179.140625 262.71875 C 174.011719 262.71875 169.507812 267.214844 169.507812 272.339844 C 169.507812 277.335938 174.261719 282.082031 179.140625 282.082031 C 184.390625 282.082031 188.894531 277.585938 188.894531 272.339844 C 188.894531 266.964844 184.640625 262.71875 179.140625 262.71875 Z M 179.140625 262.71875 " fill-opacity="1" fill-rule="evenodd"/><path fill="#203b66" d="M 147.621094 295.453125 L 232.796875 295.453125 L 232.796875 328.3125 L 147.621094 328.3125 Z M 147.621094 295.453125 " fill-opacity="1" fill-rule="evenodd"/><path fill="#203b66" d="M 234.421875 331.6875 L 145.996094 331.6875 C 145.871094 331.6875 145.746094 331.6875 145.621094 331.6875 L 135.488281 331.6875 C 127.734375 331.6875 121.605469 337.808594 121.605469 345.554688 L 121.605469 359.425781 L 250.679688 359.425781 L 250.679688 332.8125 C 248.679688 332.1875 246.679688 331.6875 244.800781 331.6875 L 234.796875 331.6875 C 234.671875 331.6875 234.546875 331.6875 234.421875 331.6875 Z M 234.421875 331.6875 " fill-opacity="1" fill-rule="evenodd"/><path fill="#ff0020" d="M 296.957031 303.074219 L 296.957031 347.429688 C 297.082031 347.679688 297.207031 347.929688 297.332031 348.054688 C 297.957031 348.679688 299.082031 348.679688 299.832031 348.304688 L 329.601562 326.066406 C 329.726562 325.816406 329.976562 325.691406 330.101562 325.566406 C 330.226562 325.441406 330.101562 324.816406 329.726562 324.566406 L 329.601562 324.566406 L 299.832031 302.699219 C 299.582031 302.574219 299.457031 302.449219 299.332031 302.199219 C 299.207031 302.199219 298.832031 302.199219 298.707031 302.199219 C 297.832031 302.199219 297.082031 302.824219 296.957031 303.074219 Z M 296.957031 303.074219 " fill-opacity="1" fill-rule="evenodd"/><g clip-path="url(#f9e1f76a51)"><path fill="#203b66" d="M 313.839844 369.921875 C 288.953125 369.921875 268.816406 349.929688 268.816406 325.316406 C 268.816406 300.824219 288.953125 280.835938 313.839844 280.835938 C 325.722656 280.835938 336.855469 285.457031 345.234375 293.953125 C 353.738281 302.324219 358.367188 313.445312 358.367188 325.316406 C 358.367188 337.183594 353.738281 348.304688 345.234375 356.800781 C 336.855469 365.171875 325.722656 369.921875 313.839844 369.921875 Z M 254.058594 293.828125 L 254.058594 371.171875 C 254.058594 372.917969 255.308594 374.917969 257.808594 374.917969 L 369.746094 374.917969 C 371.75 374.917969 373.5 373.167969 373.5 371.171875 L 373.5 279.585938 C 373.5 277.460938 371.75 275.710938 369.746094 275.710938 L 257.808594 275.710938 C 255.308594 275.710938 254.058594 277.710938 254.058594 279.585938 Z M 254.058594 293.828125 " fill-opacity="1" fill-rule="evenodd"/></g><path fill="#ff0020" d="M 272.191406 325.316406 C 272.191406 348.054688 290.828125 366.546875 313.839844 366.546875 C 336.480469 366.546875 354.988281 348.054688 354.988281 325.316406 C 354.988281 302.699219 336.480469 284.207031 313.839844 284.207031 C 290.828125 284.207031 272.191406 302.699219 272.191406 325.316406 Z M 293.578125 347.554688 L 293.578125 303.074219 C 293.578125 300.824219 295.957031 298.828125 298.707031 298.828125 C 299.582031 298.828125 301.082031 298.828125 302.085938 300.199219 L 331.601562 321.816406 C 332.726562 322.691406 333.476562 324.066406 333.476562 325.441406 C 333.476562 326.441406 333.101562 327.1875 332.601562 327.8125 C 332.351562 328.4375 331.976562 328.8125 331.226562 329.0625 L 301.835938 351.054688 C 301.710938 351.054688 301.710938 351.054688 301.710938 351.054688 C 300.832031 351.679688 299.832031 351.929688 298.707031 351.929688 C 297.457031 351.929688 295.957031 351.554688 294.957031 350.429688 C 294.328125 349.804688 293.578125 348.554688 293.578125 347.554688 Z M 293.578125 347.554688 " fill-opacity="1" fill-rule="evenodd"/><path fill="#ff0020" d="M 236.796875 140.019531 C 246.804688 140.019531 255.933594 135.773438 262.3125 129.027344 C 259.058594 119.03125 250.179688 112.28125 239.800781 112.28125 L 233.921875 112.28125 C 223.414062 112.28125 214.535156 119.03125 211.40625 129.027344 C 217.785156 135.773438 226.792969 140.019531 236.796875 140.019531 Z M 236.796875 140.019531 " fill-opacity="1" fill-rule="evenodd"/><path fill="#ff0020" d="M 236.796875 101.414062 C 242.550781 101.414062 247.304688 96.789062 247.304688 91.292969 C 247.304688 85.417969 242.675781 80.796875 236.796875 80.796875 C 231.042969 80.796875 226.292969 85.417969 226.292969 91.292969 C 226.292969 96.789062 231.042969 101.414062 236.796875 101.414062 Z M 236.796875 101.414062 " fill-opacity="1" fill-rule="evenodd"/><path fill="#203b66" d="M 250.679688 91.292969 C 250.679688 98.539062 244.300781 104.660156 236.796875 104.660156 C 229.292969 104.660156 222.914062 98.539062 222.914062 91.292969 C 222.914062 83.671875 229.167969 77.421875 236.796875 77.421875 C 244.425781 77.421875 250.679688 83.671875 250.679688 91.292969 Z M 239.800781 108.910156 C 251.054688 108.910156 260.6875 115.65625 264.8125 126.027344 C 269.191406 120.15625 271.691406 112.90625 271.691406 105.160156 C 271.691406 85.667969 256.058594 69.800781 236.796875 69.800781 C 217.535156 69.800781 201.902344 85.667969 201.902344 105.160156 C 201.902344 112.90625 204.527344 120.15625 208.90625 126.027344 C 212.910156 115.65625 222.664062 108.910156 233.921875 108.910156 Z M 239.800781 108.910156 " fill-opacity="1" fill-rule="evenodd"/><path fill="#203b66" d="M 263.9375 77.921875 C 271.191406 85.292969 275.070312 94.914062 275.070312 105.160156 C 275.070312 114.65625 271.566406 123.527344 265.6875 130.148438 C 265.6875 130.398438 265.5625 130.523438 265.4375 130.648438 C 258.058594 138.894531 247.929688 143.394531 236.796875 143.394531 C 225.664062 143.394531 215.535156 138.894531 208.28125 130.648438 C 208.15625 130.523438 208.03125 130.398438 207.90625 130.148438 C 202.152344 123.527344 198.527344 114.78125 198.527344 105.160156 C 198.527344 94.914062 202.527344 85.292969 209.78125 77.921875 C 217.035156 70.550781 226.542969 66.425781 236.796875 66.425781 C 247.054688 66.425781 256.683594 70.550781 263.9375 77.921875 Z M 233.421875 147.515625 C 237.046875 147.515625 239.800781 150.140625 239.800781 153.515625 L 239.800781 235.355469 L 248.179688 235.355469 L 248.179688 196.746094 C 248.179688 193.246094 251.054688 190.5 254.433594 190.5 L 264.5625 190.5 C 268.066406 190.5 270.941406 193.246094 270.941406 196.746094 L 270.941406 235.355469 L 279.320312 235.355469 L 279.320312 126.527344 C 279.320312 122.902344 282.324219 120.652344 285.199219 120.652344 L 295.707031 120.652344 C 299.332031 120.652344 302.085938 123.152344 302.085938 126.527344 L 302.085938 235.355469 L 309.589844 235.355469 C 314.964844 235.355469 319.21875 231.105469 319.21875 225.734375 L 319.21875 60.179688 L 60.945312 60.179688 L 60.945312 177.253906 C 70.828125 176.378906 80.957031 178.003906 90.339844 182.128906 C 104.972656 188.625 116.230469 200.371094 122.105469 215.363281 C 124.609375 221.859375 125.984375 228.605469 126.109375 235.355469 L 185.894531 235.355469 L 185.894531 178.253906 C 185.894531 174.753906 188.769531 172.007812 192.273438 172.007812 L 202.277344 172.007812 C 205.78125 172.007812 208.65625 174.753906 208.65625 178.253906 L 208.65625 235.355469 L 217.035156 235.355469 L 217.035156 153.515625 C 217.035156 150.140625 219.789062 147.515625 223.414062 147.515625 Z M 176.261719 127.777344 C 176.261719 157.011719 152.25 180.753906 122.855469 180.753906 C 106.972656 180.753906 92.589844 173.882812 82.835938 162.886719 C 82.710938 162.761719 82.585938 162.636719 82.460938 162.511719 C 82.335938 162.386719 82.210938 162.261719 82.085938 162.136719 C 74.203125 152.890625 69.453125 140.894531 69.453125 127.777344 C 69.453125 98.414062 93.339844 74.425781 122.855469 74.425781 L 123.359375 74.425781 C 152.625 74.800781 176.261719 98.539062 176.261719 127.777344 Z M 176.261719 127.777344 " fill-opacity="1" fill-rule="evenodd"/><path fill="#ff0020" d="M 285.199219 124.027344 C 283.949219 124.027344 282.699219 125.027344 282.699219 126.527344 L 282.699219 235.355469 L 298.707031 235.355469 L 298.707031 126.527344 C 298.707031 124.902344 297.207031 124.027344 295.707031 124.027344 Z M 285.199219 124.027344 " fill-opacity="1" fill-rule="evenodd"/><path fill="#ff0020" d="M 267.566406 196.746094 C 267.566406 195.121094 266.1875 193.746094 264.5625 193.746094 L 254.433594 193.746094 C 252.929688 193.746094 251.554688 195.121094 251.554688 196.746094 L 251.554688 235.355469 L 267.566406 235.355469 Z M 267.566406 196.746094 " fill-opacity="1" fill-rule="evenodd"/><path fill="#ff0020" d="M 236.421875 235.355469 L 236.421875 153.515625 C 236.421875 151.765625 234.921875 150.890625 233.421875 150.890625 L 223.414062 150.890625 C 221.914062 150.890625 220.414062 151.765625 220.414062 153.515625 L 220.414062 235.355469 Z M 236.421875 235.355469 " fill-opacity="1" fill-rule="evenodd"/><path fill="#ff0020" d="M 205.277344 235.355469 L 205.277344 178.253906 C 205.277344 176.628906 203.902344 175.253906 202.277344 175.253906 L 192.273438 175.253906 C 190.644531 175.253906 189.269531 176.628906 189.269531 178.253906 L 189.269531 235.355469 Z M 205.277344 235.355469 " fill-opacity="1" fill-rule="evenodd"/><path fill="#203b66" d="M 206.90625 238.726562 L 126.109375 238.726562 C 126.109375 242.101562 125.734375 245.476562 124.984375 248.847656 L 324.722656 248.847656 C 332.351562 248.847656 338.605469 242.851562 338.605469 235.355469 L 338.605469 58.054688 C 338.605469 50.683594 332.351562 44.5625 324.722656 44.5625 L 322.597656 44.5625 L 322.597656 225.734375 C 322.597656 232.980469 316.84375 238.726562 309.589844 238.726562 Z M 206.90625 238.726562 " fill-opacity="1" fill-rule="evenodd"/><path fill="#ff0020" d="M 124.984375 127.027344 L 163.878906 156.261719 C 169.507812 148.140625 172.886719 138.394531 172.886719 127.777344 C 172.886719 100.914062 151.5 78.921875 124.984375 77.921875 Z M 124.984375 127.027344 " fill-opacity="1" fill-rule="evenodd"/><path fill="#ff0020" d="M 161.753906 158.886719 L 123.359375 130.023438 C 118.730469 133.898438 100.21875 149.640625 86.210938 161.511719 C 95.339844 171.257812 108.347656 177.378906 122.855469 177.378906 C 138.617188 177.378906 152.625 170.132812 161.753906 158.886719 Z M 161.753906 158.886719 " fill-opacity="1" fill-rule="evenodd"/><path fill="#ff0020" d="M 83.960938 159.011719 C 97.09375 148.015625 113.976562 133.523438 119.980469 128.527344 C 113.351562 126.152344 95.84375 120.03125 75.082031 112.78125 C 73.578125 117.53125 72.828125 122.527344 72.828125 127.777344 C 72.828125 139.644531 76.957031 150.515625 83.960938 159.011719 Z M 83.960938 159.011719 " fill-opacity="1" fill-rule="evenodd"/><path fill="#ff0020" d="M 76.207031 109.660156 C 97.46875 117.15625 115.476562 123.402344 121.605469 125.527344 L 121.605469 77.796875 C 100.96875 78.296875 83.335938 91.417969 76.207031 109.660156 Z M 76.207031 109.660156 " fill-opacity="1" fill-rule="evenodd"/><path fill="#203b66" d="M 57.570312 177.628906 L 57.570312 44.6875 L 55.570312 44.5625 C 47.816406 44.5625 41.6875 50.683594 41.6875 58.054688 L 41.6875 182.128906 C 42.4375 181.753906 43.1875 181.503906 44.0625 181.128906 C 48.441406 179.378906 53.066406 178.253906 57.570312 177.628906 Z M 57.570312 177.628906 " fill-opacity="1" fill-rule="evenodd"/><path fill="#203b66" d="M 38.308594 183.75 L 38.308594 58.054688 C 38.308594 48.808594 46.0625 41.3125 55.570312 41.3125 L 57.570312 41.3125 L 57.570312 24.070312 L 33.683594 24.070312 C 23.550781 24.070312 15.171875 32.441406 15.171875 42.5625 L 15.171875 204.867188 C 20.925781 195.871094 28.804688 188.625 38.308594 183.75 Z M 38.308594 183.75 " fill-opacity="1" fill-rule="evenodd"/><path fill="#ff0020" d="M 114.851562 28.695312 C 114.851562 33.691406 119.230469 37.941406 124.484375 37.941406 C 129.484375 37.941406 133.738281 33.566406 133.738281 28.695312 C 133.738281 23.445312 129.484375 18.949219 124.484375 18.949219 C 119.105469 18.949219 114.851562 23.195312 114.851562 28.695312 Z M 114.851562 28.695312 " fill-opacity="1" fill-rule="evenodd"/><path fill="#ff0020" d="M 149.746094 28.695312 C 149.746094 33.566406 154.125 37.941406 159.003906 37.941406 C 164.132812 37.941406 168.257812 33.816406 168.257812 28.695312 C 168.257812 23.195312 164.257812 18.949219 159.003906 18.949219 C 154 18.949219 149.746094 23.445312 149.746094 28.695312 Z M 149.746094 28.695312 " fill-opacity="1" fill-rule="evenodd"/><path fill="#203b66" d="M 159.003906 41.3125 C 152.125 41.3125 146.371094 35.566406 146.371094 28.695312 C 146.371094 21.449219 152.125 15.574219 159.003906 15.574219 C 166.132812 15.574219 171.636719 21.324219 171.636719 28.695312 C 171.636719 35.691406 166.132812 41.3125 159.003906 41.3125 Z M 60.945312 56.808594 L 214.160156 56.808594 C 211.78125 52.683594 209.28125 48.3125 206.78125 43.8125 C 197.648438 28.070312 188.394531 11.703125 181.265625 0.0820312 L 70.203125 0.0820312 C 65.199219 0.0820312 60.945312 4.453125 60.945312 9.703125 Z M 137.117188 28.695312 C 137.117188 35.566406 131.363281 41.3125 124.484375 41.3125 C 117.355469 41.3125 111.476562 35.566406 111.476562 28.695312 C 111.476562 21.449219 117.355469 15.574219 124.484375 15.574219 C 131.488281 15.574219 137.117188 21.449219 137.117188 28.695312 Z M 102.21875 28.695312 C 102.21875 35.566406 96.46875 41.3125 89.589844 41.3125 C 82.710938 41.3125 76.957031 35.566406 76.957031 28.695312 C 76.957031 21.449219 82.710938 15.574219 89.589844 15.574219 C 96.59375 15.574219 102.21875 21.449219 102.21875 28.695312 Z M 102.21875 28.695312 " fill-opacity="1" fill-rule="evenodd"/><path fill="#ff0020" d="M 89.589844 37.941406 C 94.464844 37.941406 98.84375 33.566406 98.84375 28.695312 C 98.84375 23.445312 94.589844 18.949219 89.589844 18.949219 C 84.585938 18.949219 80.332031 23.445312 80.332031 28.695312 C 80.332031 33.566406 84.710938 37.941406 89.589844 37.941406 Z M 89.589844 37.941406 " fill-opacity="1" fill-rule="evenodd"/><path fill="#ff0020" d="M 224.164062 28.695312 C 224.164062 31.066406 226.417969 33.316406 228.792969 33.316406 L 294.832031 33.316406 C 297.582031 33.316406 299.957031 31.191406 299.957031 28.695312 C 299.957031 25.820312 297.707031 23.570312 294.832031 23.570312 L 228.792969 23.570312 C 226.292969 23.570312 224.164062 25.945312 224.164062 28.695312 Z M 224.164062 28.695312 " fill-opacity="1" fill-rule="evenodd"/><path fill="#203b66" d="M 228.792969 36.691406 C 224.539062 36.691406 220.789062 32.941406 220.789062 28.695312 C 220.789062 24.070312 224.414062 20.199219 228.792969 20.199219 L 294.832031 20.199219 C 299.582031 20.199219 303.335938 23.945312 303.335938 28.695312 C 303.335938 33.066406 299.457031 36.691406 294.832031 36.691406 Z M 218.035156 56.808594 L 319.21875 56.808594 L 319.21875 9.703125 C 319.21875 4.453125 314.964844 0.0820312 309.964844 0.0820312 L 185.144531 0.0820312 C 192.148438 11.578125 201.152344 27.195312 209.65625 42.1875 C 212.535156 47.3125 215.410156 52.183594 218.035156 56.808594 Z M 218.035156 56.808594 " fill-opacity="1" fill-rule="evenodd"/></svg>