<svg xmlns="http://www.w3.org/2000/svg" xmlns:xlink="http://www.w3.org/1999/xlink" width="500" zoomAndPan="magnify" viewBox="0 0 375 374.999991" height="500" preserveAspectRatio="xMidYMid meet" version="1.0"><defs><clipPath id="247721ea72"><path d="M 375 187.5 C 375 190.570312 374.925781 193.636719 374.773438 196.699219 C 374.625 199.765625 374.398438 202.824219 374.097656 205.878906 C 373.796875 208.933594 373.421875 211.976562 372.96875 215.011719 C 372.519531 218.046875 371.996094 221.070312 371.398438 224.078125 C 370.796875 227.089844 370.125 230.082031 369.378906 233.058594 C 368.636719 236.035156 367.816406 238.992188 366.925781 241.929688 C 366.035156 244.863281 365.074219 247.777344 364.039062 250.667969 C 363.003906 253.554688 361.902344 256.417969 360.726562 259.253906 C 359.554688 262.089844 358.308594 264.890625 356.996094 267.667969 C 355.6875 270.441406 354.308594 273.179688 352.859375 275.886719 C 351.414062 278.59375 349.902344 281.261719 348.324219 283.894531 C 346.746094 286.527344 345.105469 289.117188 343.402344 291.667969 C 341.695312 294.222656 339.929688 296.730469 338.101562 299.195312 C 336.273438 301.660156 334.386719 304.078125 332.4375 306.449219 C 330.492188 308.820312 328.488281 311.144531 326.429688 313.417969 C 324.367188 315.691406 322.253906 317.914062 320.082031 320.082031 C 317.914062 322.253906 315.691406 324.367188 313.417969 326.429688 C 311.144531 328.488281 308.820312 330.492188 306.449219 332.4375 C 304.078125 334.386719 301.660156 336.273438 299.195312 338.101562 C 296.730469 339.929688 294.222656 341.695312 291.667969 343.402344 C 289.117188 345.105469 286.527344 346.746094 283.894531 348.324219 C 281.261719 349.902344 278.59375 351.414062 275.886719 352.859375 C 273.179688 354.308594 270.441406 355.6875 267.667969 356.996094 C 264.890625 358.308594 262.089844 359.554688 259.253906 360.726562 C 256.417969 361.902344 253.554688 363.003906 250.667969 364.039062 C 247.777344 365.074219 244.863281 366.035156 241.929688 366.925781 C 238.992188 367.816406 236.035156 368.636719 233.058594 369.378906 C 230.082031 370.125 227.089844 370.796875 224.078125 371.398438 C 221.070312 371.996094 218.046875 372.519531 215.011719 372.96875 C 211.976562 373.421875 208.933594 373.796875 205.878906 374.097656 C 202.824219 374.398438 199.765625 374.625 196.699219 374.773438 C 193.636719 374.925781 190.570312 375 187.5 375 C 184.429688 375 181.363281 374.925781 178.300781 374.773438 C 175.234375 374.625 172.175781 374.398438 169.121094 374.097656 C 166.066406 373.796875 163.023438 373.421875 159.988281 372.96875 C 156.953125 372.519531 153.929688 371.996094 150.921875 371.398438 C 147.910156 370.796875 144.917969 370.125 141.941406 369.378906 C 138.964844 368.636719 136.007812 367.816406 133.070312 366.925781 C 130.136719 366.035156 127.222656 365.074219 124.332031 364.039062 C 121.445312 363.003906 118.582031 361.902344 115.746094 360.726562 C 112.910156 359.554688 110.105469 358.308594 107.332031 356.996094 C 104.558594 355.6875 101.820312 354.308594 99.113281 352.859375 C 96.40625 351.414062 93.738281 349.902344 91.105469 348.324219 C 88.472656 346.746094 85.882812 345.105469 83.332031 343.402344 C 80.777344 341.695312 78.269531 339.929688 75.804688 338.101562 C 73.339844 336.273438 70.921875 334.386719 68.550781 332.4375 C 66.179688 330.492188 63.855469 328.488281 61.582031 326.429688 C 59.308594 324.367188 57.085938 322.253906 54.917969 320.082031 C 52.746094 317.914062 50.632812 315.691406 48.570312 313.417969 C 46.511719 311.144531 44.507812 308.820312 42.558594 306.449219 C 40.613281 304.078125 38.726562 301.660156 36.898438 299.195312 C 35.070312 296.730469 33.304688 294.222656 31.597656 291.667969 C 29.894531 289.117188 28.253906 286.527344 26.675781 283.894531 C 25.097656 281.261719 23.585938 278.59375 22.140625 275.886719 C 20.691406 273.179688 19.3125 270.441406 18.003906 267.667969 C 16.691406 264.890625 15.445312 262.089844 14.273438 259.253906 C 13.097656 256.417969 11.996094 253.554688 10.960938 250.667969 C 9.925781 247.777344 8.964844 244.863281 8.074219 241.929688 C 7.183594 238.992188 6.363281 236.035156 5.617188 233.058594 C 4.875 230.082031 4.203125 227.089844 3.601562 224.078125 C 3.003906 221.070312 2.480469 218.046875 2.03125 215.011719 C 1.578125 211.976562 1.203125 208.933594 0.902344 205.878906 C 0.601562 202.824219 0.375 199.765625 0.226562 196.699219 C 0.0742188 193.636719 0 190.570312 0 187.5 C 0 184.429688 0.0742188 181.363281 0.226562 178.300781 C 0.375 175.234375 0.601562 172.175781 0.902344 169.121094 C 1.203125 166.066406 1.578125 163.023438 2.03125 159.988281 C 2.480469 156.953125 3.003906 153.929688 3.601562 150.921875 C 4.203125 147.910156 4.875 144.917969 5.617188 141.941406 C 6.363281 138.964844 7.183594 136.007812 8.074219 133.070312 C 8.964844 130.136719 9.925781 127.222656 10.960938 124.332031 C 11.996094 121.445312 13.097656 118.582031 14.273438 115.746094 C 15.445312 112.910156 16.691406 110.105469 18.003906 107.332031 C 19.3125 104.558594 20.691406 101.820312 22.140625 99.113281 C 23.585938 96.40625 25.097656 93.738281 26.675781 91.105469 C 28.253906 88.472656 29.894531 85.882812 31.597656 83.332031 C 33.304688 80.777344 35.070312 78.269531 36.898438 75.804688 C 38.726562 73.339844 40.613281 70.921875 42.558594 68.550781 C 44.507812 66.179688 46.511719 63.855469 48.570312 61.582031 C 50.632812 59.308594 52.746094 57.085938 54.917969 54.917969 C 57.085938 52.746094 59.308594 50.632812 61.582031 48.570312 C 63.855469 46.511719 66.179688 44.507812 68.550781 42.558594 C 70.921875 40.613281 73.339844 38.726562 75.804688 36.898438 C 78.269531 35.070312 80.777344 33.304688 83.332031 31.597656 C 85.882812 29.894531 88.472656 28.253906 91.105469 26.675781 C 93.738281 25.097656 96.40625 23.585938 99.113281 22.140625 C 101.820312 20.691406 104.558594 19.3125 107.332031 18.003906 C 110.105469 16.691406 112.910156 15.445312 115.746094 14.273438 C 118.582031 13.097656 121.445312 11.996094 124.332031 10.960938 C 127.222656 9.925781 130.136719 8.964844 133.070312 8.074219 C 136.007812 7.183594 138.964844 6.363281 141.941406 5.617188 C 144.917969 4.875 147.910156 4.203125 150.921875 3.601562 C 153.929688 3.003906 156.953125 2.480469 159.988281 2.03125 C 163.023438 1.578125 166.066406 1.203125 169.121094 0.902344 C 172.175781 0.601562 175.234375 0.375 178.300781 0.226562 C 181.363281 0.0742188 184.429688 0 187.5 0 C 190.570312 0 193.636719 0.0742188 196.699219 0.226562 C 199.765625 0.375 202.824219 0.601562 205.878906 0.902344 C 208.933594 1.203125 211.976562 1.578125 215.011719 2.03125 C 218.046875 2.480469 221.070312 3.003906 224.078125 3.601562 C 227.089844 4.203125 230.082031 4.875 233.058594 5.617188 C 236.035156 6.363281 238.992188 7.183594 241.929688 8.074219 C 244.863281 8.964844 247.777344 9.925781 250.667969 10.960938 C 253.554688 11.996094 256.417969 13.097656 259.253906 14.273438 C 262.089844 15.445312 264.890625 16.691406 267.667969 18.003906 C 270.441406 19.3125 273.179688 20.691406 275.886719 22.140625 C 278.59375 23.585938 281.261719 25.097656 283.894531 26.675781 C 286.527344 28.253906 289.117188 29.894531 291.667969 31.597656 C 294.222656 33.304688 296.730469 35.070312 299.195312 36.898438 C 301.660156 38.726562 304.078125 40.613281 306.449219 42.558594 C 308.820312 44.507812 311.144531 46.511719 313.417969 48.570312 C 315.691406 50.632812 317.914062 52.746094 320.082031 54.917969 C 322.253906 57.085938 324.367188 59.308594 326.429688 61.582031 C 328.488281 63.855469 330.492188 66.179688 332.4375 68.550781 C 334.386719 70.921875 336.273438 73.339844 338.101562 75.804688 C 339.929688 78.269531 341.695312 80.777344 343.402344 83.332031 C 345.105469 85.882812 346.746094 88.472656 348.324219 91.105469 C 349.902344 93.738281 351.414062 96.40625 352.859375 99.113281 C 354.308594 101.820312 355.6875 104.558594 356.996094 107.332031 C 358.308594 110.105469 359.554688 112.910156 360.726562 115.746094 C 361.902344 118.582031 363.003906 121.445312 364.039062 124.332031 C 365.074219 127.222656 366.035156 130.136719 366.925781 133.070312 C 367.816406 136.007812 368.636719 138.964844 369.378906 141.941406 C 370.125 144.917969 370.796875 147.910156 371.398438 150.921875 C 371.996094 153.929688 372.519531 156.953125 372.96875 159.988281 C 373.421875 163.023438 373.796875 166.066406 374.097656 169.121094 C 374.398438 172.175781 374.625 175.234375 374.773438 178.300781 C 374.925781 181.363281 375 184.429688 375 187.5 Z M 375 187.5 " clip-rule="nonzero"/></clipPath><linearGradient x1="275" gradientTransform="matrix(0.78125, 0, 0, -0.78125, -27.343743, -1099.218534)" y1="-1406.999865" x2="275" gradientUnits="userSpaceOnUse" y2="-1886.999877" id="cc3cb561af"><stop stop-opacity="1" stop-color="rgb(7.058716%, 41.958618%, 100%)" offset="0"/><stop stop-opacity="1" stop-color="rgb(7.3349%, 41.836548%, 100%)" offset="0.00390625"/><stop stop-opacity="1" stop-color="rgb(7.611084%, 41.714478%, 100%)" offset="0.0078125"/><stop stop-opacity="1" stop-color="rgb(7.885742%, 41.590881%, 100%)" offset="0.0117188"/><stop stop-opacity="1" stop-color="rgb(8.161926%, 41.468811%, 100%)" offset="0.015625"/><stop stop-opacity="1" stop-color="rgb(8.43811%, 41.346741%, 100%)" offset="0.0195312"/><stop stop-opacity="1" stop-color="rgb(8.714294%, 41.22467%, 100%)" offset="0.0234375"/><stop stop-opacity="1" stop-color="rgb(8.988953%, 41.101074%, 100%)" offset="0.0273437"/><stop stop-opacity="1" stop-color="rgb(9.265137%, 40.979004%, 100%)" offset="0.03125"/><stop stop-opacity="1" stop-color="rgb(9.539795%, 40.855408%, 100%)" offset="0.0351562"/><stop stop-opacity="1" stop-color="rgb(9.815979%, 40.733337%, 100%)" offset="0.0390625"/><stop stop-opacity="1" stop-color="rgb(10.092163%, 40.611267%, 100%)" offset="0.0429688"/><stop stop-opacity="1" stop-color="rgb(10.368347%, 40.489197%, 100%)" offset="0.046875"/><stop stop-opacity="1" stop-color="rgb(10.643005%, 40.365601%, 100%)" offset="0.0507812"/><stop stop-opacity="1" stop-color="rgb(10.919189%, 40.24353%, 100%)" offset="0.0546875"/><stop stop-opacity="1" stop-color="rgb(11.195374%, 40.119934%, 100%)" offset="0.0585937"/><stop stop-opacity="1" stop-color="rgb(11.471558%, 39.997864%, 100%)" offset="0.0625"/><stop stop-opacity="1" stop-color="rgb(11.746216%, 39.875793%, 100%)" offset="0.0664062"/><stop stop-opacity="1" stop-color="rgb(12.0224%, 39.753723%, 100%)" offset="0.0703125"/><stop stop-opacity="1" stop-color="rgb(12.298584%, 39.630127%, 100%)" offset="0.0742188"/><stop stop-opacity="1" stop-color="rgb(12.574768%, 39.508057%, 100%)" offset="0.078125"/><stop stop-opacity="1" stop-color="rgb(12.849426%, 39.385986%, 100%)" offset="0.0820312"/><stop stop-opacity="1" stop-color="rgb(13.12561%, 39.263916%, 100%)" offset="0.0859375"/><stop stop-opacity="1" stop-color="rgb(13.400269%, 39.14032%, 100%)" offset="0.0898438"/><stop stop-opacity="1" stop-color="rgb(13.676453%, 39.01825%, 100%)" offset="0.09375"/><stop stop-opacity="1" stop-color="rgb(13.952637%, 38.894653%, 100%)" offset="0.0976562"/><stop stop-opacity="1" stop-color="rgb(14.228821%, 38.772583%, 100%)" offset="0.101562"/><stop stop-opacity="1" stop-color="rgb(14.503479%, 38.650513%, 100%)" offset="0.105469"/><stop stop-opacity="1" stop-color="rgb(14.779663%, 38.528442%, 100%)" offset="0.109375"/><stop stop-opacity="1" stop-color="rgb(15.055847%, 38.404846%, 100%)" offset="0.113281"/><stop stop-opacity="1" stop-color="rgb(15.332031%, 38.282776%, 100%)" offset="0.117187"/><stop stop-opacity="1" stop-color="rgb(15.606689%, 38.160706%, 100%)" offset="0.121094"/><stop stop-opacity="1" stop-color="rgb(15.882874%, 38.038635%, 100%)" offset="0.125"/><stop stop-opacity="1" stop-color="rgb(16.157532%, 37.915039%, 100%)" offset="0.128906"/><stop stop-opacity="1" stop-color="rgb(16.433716%, 37.792969%, 100%)" offset="0.132812"/><stop stop-opacity="1" stop-color="rgb(16.7099%, 37.669373%, 100%)" offset="0.136719"/><stop stop-opacity="1" stop-color="rgb(16.986084%, 37.547302%, 100%)" offset="0.140625"/><stop stop-opacity="1" stop-color="rgb(17.260742%, 37.425232%, 100%)" offset="0.144531"/><stop stop-opacity="1" stop-color="rgb(17.536926%, 37.303162%, 100%)" offset="0.148438"/><stop stop-opacity="1" stop-color="rgb(17.81311%, 37.179565%, 100%)" offset="0.152344"/><stop stop-opacity="1" stop-color="rgb(18.089294%, 37.057495%, 100%)" offset="0.15625"/><stop stop-opacity="1" stop-color="rgb(18.363953%, 36.935425%, 100%)" offset="0.160156"/><stop stop-opacity="1" stop-color="rgb(18.640137%, 36.813354%, 100%)" offset="0.164062"/><stop stop-opacity="1" stop-color="rgb(18.916321%, 36.689758%, 100%)" offset="0.167969"/><stop stop-opacity="1" stop-color="rgb(19.192505%, 36.567688%, 100%)" offset="0.171875"/><stop stop-opacity="1" stop-color="rgb(19.467163%, 36.444092%, 100%)" offset="0.175781"/><stop stop-opacity="1" stop-color="rgb(19.743347%, 36.322021%, 100%)" offset="0.179688"/><stop stop-opacity="1" stop-color="rgb(20.018005%, 36.199951%, 100%)" offset="0.183594"/><stop stop-opacity="1" stop-color="rgb(20.294189%, 36.077881%, 100%)" offset="0.1875"/><stop stop-opacity="1" stop-color="rgb(20.570374%, 35.954285%, 100%)" offset="0.191406"/><stop stop-opacity="1" stop-color="rgb(20.846558%, 35.832214%, 100%)" offset="0.195312"/><stop stop-opacity="1" stop-color="rgb(21.121216%, 35.708618%, 100%)" offset="0.199219"/><stop stop-opacity="1" stop-color="rgb(21.3974%, 35.586548%, 100%)" offset="0.203125"/><stop stop-opacity="1" stop-color="rgb(21.673584%, 35.464478%, 100%)" offset="0.207031"/><stop stop-opacity="1" stop-color="rgb(21.949768%, 35.342407%, 100%)" offset="0.210937"/><stop stop-opacity="1" stop-color="rgb(22.224426%, 35.218811%, 100%)" offset="0.214844"/><stop stop-opacity="1" stop-color="rgb(22.50061%, 35.096741%, 100%)" offset="0.21875"/><stop stop-opacity="1" stop-color="rgb(22.776794%, 34.97467%, 100%)" offset="0.222656"/><stop stop-opacity="1" stop-color="rgb(23.052979%, 34.8526%, 100%)" offset="0.226562"/><stop stop-opacity="1" stop-color="rgb(23.327637%, 34.729004%, 100%)" offset="0.230469"/><stop stop-opacity="1" stop-color="rgb(23.603821%, 34.606934%, 100%)" offset="0.234375"/><stop stop-opacity="1" stop-color="rgb(23.878479%, 34.483337%, 100%)" offset="0.238281"/><stop stop-opacity="1" stop-color="rgb(24.154663%, 34.361267%, 100%)" offset="0.242188"/><stop stop-opacity="1" stop-color="rgb(24.430847%, 34.239197%, 100%)" offset="0.246094"/><stop stop-opacity="1" stop-color="rgb(24.707031%, 34.117126%, 100%)" offset="0.25"/><stop stop-opacity="1" stop-color="rgb(24.981689%, 33.99353%, 100%)" offset="0.253906"/><stop stop-opacity="1" stop-color="rgb(25.257874%, 33.87146%, 100%)" offset="0.257812"/><stop stop-opacity="1" stop-color="rgb(25.534058%, 33.74939%, 100%)" offset="0.261719"/><stop stop-opacity="1" stop-color="rgb(25.810242%, 33.627319%, 100%)" offset="0.265625"/><stop stop-opacity="1" stop-color="rgb(26.0849%, 33.503723%, 100%)" offset="0.269531"/><stop stop-opacity="1" stop-color="rgb(26.361084%, 33.381653%, 100%)" offset="0.273437"/><stop stop-opacity="1" stop-color="rgb(26.635742%, 33.258057%, 100%)" offset="0.277344"/><stop stop-opacity="1" stop-color="rgb(26.911926%, 33.135986%, 100%)" offset="0.28125"/><stop stop-opacity="1" stop-color="rgb(27.18811%, 33.013916%, 100%)" offset="0.285156"/><stop stop-opacity="1" stop-color="rgb(27.464294%, 32.891846%, 100%)" offset="0.289062"/><stop stop-opacity="1" stop-color="rgb(27.738953%, 32.76825%, 100%)" offset="0.292969"/><stop stop-opacity="1" stop-color="rgb(28.015137%, 32.646179%, 100%)" offset="0.296875"/><stop stop-opacity="1" stop-color="rgb(28.291321%, 32.522583%, 100%)" offset="0.300781"/><stop stop-opacity="1" stop-color="rgb(28.567505%, 32.400513%, 100%)" offset="0.304687"/><stop stop-opacity="1" stop-color="rgb(28.842163%, 32.278442%, 100%)" offset="0.308594"/><stop stop-opacity="1" stop-color="rgb(29.118347%, 32.156372%, 100%)" offset="0.3125"/><stop stop-opacity="1" stop-color="rgb(29.394531%, 32.032776%, 100%)" offset="0.316406"/><stop stop-opacity="1" stop-color="rgb(29.670715%, 31.910706%, 100%)" offset="0.320312"/><stop stop-opacity="1" stop-color="rgb(29.945374%, 31.788635%, 100%)" offset="0.324219"/><stop stop-opacity="1" stop-color="rgb(30.221558%, 31.666565%, 100%)" offset="0.328125"/><stop stop-opacity="1" stop-color="rgb(30.496216%, 31.542969%, 100%)" offset="0.332031"/><stop stop-opacity="1" stop-color="rgb(30.7724%, 31.420898%, 100%)" offset="0.335937"/><stop stop-opacity="1" stop-color="rgb(31.048584%, 31.297302%, 100%)" offset="0.339844"/><stop stop-opacity="1" stop-color="rgb(31.324768%, 31.175232%, 100%)" offset="0.34375"/><stop stop-opacity="1" stop-color="rgb(31.599426%, 31.053162%, 100%)" offset="0.347656"/><stop stop-opacity="1" stop-color="rgb(31.87561%, 30.931091%, 100%)" offset="0.351562"/><stop stop-opacity="1" stop-color="rgb(32.151794%, 30.807495%, 100%)" offset="0.355469"/><stop stop-opacity="1" stop-color="rgb(32.427979%, 30.685425%, 100%)" offset="0.359375"/><stop stop-opacity="1" stop-color="rgb(32.702637%, 30.563354%, 100%)" offset="0.363281"/><stop stop-opacity="1" stop-color="rgb(32.978821%, 30.441284%, 100%)" offset="0.367187"/><stop stop-opacity="1" stop-color="rgb(33.255005%, 30.317688%, 100%)" offset="0.371094"/><stop stop-opacity="1" stop-color="rgb(33.531189%, 30.195618%, 100%)" offset="0.375"/><stop stop-opacity="1" stop-color="rgb(33.805847%, 30.072021%, 100%)" offset="0.378906"/><stop stop-opacity="1" stop-color="rgb(34.082031%, 29.949951%, 100%)" offset="0.382812"/><stop stop-opacity="1" stop-color="rgb(34.356689%, 29.827881%, 100%)" offset="0.386719"/><stop stop-opacity="1" stop-color="rgb(34.632874%, 29.705811%, 100%)" offset="0.390625"/><stop stop-opacity="1" stop-color="rgb(34.909058%, 29.582214%, 100%)" offset="0.394531"/><stop stop-opacity="1" stop-color="rgb(35.185242%, 29.460144%, 100%)" offset="0.398437"/><stop stop-opacity="1" stop-color="rgb(35.4599%, 29.336548%, 100%)" offset="0.402344"/><stop stop-opacity="1" stop-color="rgb(35.736084%, 29.214478%, 100%)" offset="0.40625"/><stop stop-opacity="1" stop-color="rgb(36.012268%, 29.092407%, 100%)" offset="0.410156"/><stop stop-opacity="1" stop-color="rgb(36.288452%, 28.970337%, 100%)" offset="0.414062"/><stop stop-opacity="1" stop-color="rgb(36.56311%, 28.846741%, 100%)" offset="0.417969"/><stop stop-opacity="1" stop-color="rgb(36.839294%, 28.72467%, 100%)" offset="0.421875"/><stop stop-opacity="1" stop-color="rgb(37.113953%, 28.6026%, 100%)" offset="0.425781"/><stop stop-opacity="1" stop-color="rgb(37.390137%, 28.48053%, 100%)" offset="0.429687"/><stop stop-opacity="1" stop-color="rgb(37.666321%, 28.356934%, 100%)" offset="0.433594"/><stop stop-opacity="1" stop-color="rgb(37.942505%, 28.234863%, 100%)" offset="0.4375"/><stop stop-opacity="1" stop-color="rgb(38.217163%, 28.111267%, 100%)" offset="0.441406"/><stop stop-opacity="1" stop-color="rgb(38.493347%, 27.989197%, 100%)" offset="0.445312"/><stop stop-opacity="1" stop-color="rgb(38.769531%, 27.867126%, 100%)" offset="0.449219"/><stop stop-opacity="1" stop-color="rgb(39.045715%, 27.745056%, 100%)" offset="0.453125"/><stop stop-opacity="1" stop-color="rgb(39.320374%, 27.62146%, 100%)" offset="0.457031"/><stop stop-opacity="1" stop-color="rgb(39.596558%, 27.49939%, 100%)" offset="0.460937"/><stop stop-opacity="1" stop-color="rgb(39.872742%, 27.377319%, 100%)" offset="0.464844"/><stop stop-opacity="1" stop-color="rgb(40.148926%, 27.255249%, 100%)" offset="0.46875"/><stop stop-opacity="1" stop-color="rgb(40.423584%, 27.131653%, 100%)" offset="0.472656"/><stop stop-opacity="1" stop-color="rgb(40.699768%, 27.009583%, 100%)" offset="0.476562"/><stop stop-opacity="1" stop-color="rgb(40.974426%, 26.885986%, 100%)" offset="0.480469"/><stop stop-opacity="1" stop-color="rgb(41.25061%, 26.763916%, 100%)" offset="0.484375"/><stop stop-opacity="1" stop-color="rgb(41.526794%, 26.641846%, 100%)" offset="0.488281"/><stop stop-opacity="1" stop-color="rgb(41.802979%, 26.519775%, 100%)" offset="0.492187"/><stop stop-opacity="1" stop-color="rgb(42.077637%, 26.396179%, 100%)" offset="0.496094"/><stop stop-opacity="1" stop-color="rgb(42.353821%, 26.274109%, 100%)" offset="0.5"/><stop stop-opacity="1" stop-color="rgb(42.630005%, 26.150513%, 100%)" offset="0.503906"/><stop stop-opacity="1" stop-color="rgb(42.906189%, 26.028442%, 100%)" offset="0.507812"/><stop stop-opacity="1" stop-color="rgb(43.180847%, 25.906372%, 100%)" offset="0.511719"/><stop stop-opacity="1" stop-color="rgb(43.457031%, 25.784302%, 100%)" offset="0.515625"/><stop stop-opacity="1" stop-color="rgb(43.733215%, 25.660706%, 100%)" offset="0.519531"/><stop stop-opacity="1" stop-color="rgb(44.009399%, 25.538635%, 100%)" offset="0.523438"/><stop stop-opacity="1" stop-color="rgb(44.284058%, 25.416565%, 100%)" offset="0.527344"/><stop stop-opacity="1" stop-color="rgb(44.560242%, 25.294495%, 100%)" offset="0.53125"/><stop stop-opacity="1" stop-color="rgb(44.8349%, 25.170898%, 100%)" offset="0.535156"/><stop stop-opacity="1" stop-color="rgb(45.111084%, 25.048828%, 100%)" offset="0.539062"/><stop stop-opacity="1" stop-color="rgb(45.387268%, 24.925232%, 100%)" offset="0.542969"/><stop stop-opacity="1" stop-color="rgb(45.663452%, 24.803162%, 100%)" offset="0.546875"/><stop stop-opacity="1" stop-color="rgb(45.93811%, 24.681091%, 100%)" offset="0.550781"/><stop stop-opacity="1" stop-color="rgb(46.214294%, 24.559021%, 100%)" offset="0.554688"/><stop stop-opacity="1" stop-color="rgb(46.490479%, 24.435425%, 100%)" offset="0.558594"/><stop stop-opacity="1" stop-color="rgb(46.766663%, 24.313354%, 100%)" offset="0.5625"/><stop stop-opacity="1" stop-color="rgb(47.041321%, 24.191284%, 100%)" offset="0.566406"/><stop stop-opacity="1" stop-color="rgb(47.317505%, 24.069214%, 100%)" offset="0.570312"/><stop stop-opacity="1" stop-color="rgb(47.592163%, 23.945618%, 100%)" offset="0.574219"/><stop stop-opacity="1" stop-color="rgb(47.868347%, 23.823547%, 100%)" offset="0.578125"/><stop stop-opacity="1" stop-color="rgb(48.144531%, 23.699951%, 100%)" offset="0.582031"/><stop stop-opacity="1" stop-color="rgb(48.420715%, 23.577881%, 100%)" offset="0.585938"/><stop stop-opacity="1" stop-color="rgb(48.695374%, 23.455811%, 100%)" offset="0.589844"/><stop stop-opacity="1" stop-color="rgb(48.971558%, 23.33374%, 100%)" offset="0.59375"/><stop stop-opacity="1" stop-color="rgb(49.247742%, 23.210144%, 100%)" offset="0.597656"/><stop stop-opacity="1" stop-color="rgb(49.523926%, 23.088074%, 100%)" offset="0.601562"/><stop stop-opacity="1" stop-color="rgb(49.798584%, 22.964478%, 100%)" offset="0.605469"/><stop stop-opacity="1" stop-color="rgb(50.074768%, 22.842407%, 100%)" offset="0.609375"/><stop stop-opacity="1" stop-color="rgb(50.350952%, 22.720337%, 100%)" offset="0.613281"/><stop stop-opacity="1" stop-color="rgb(50.627136%, 22.598267%, 100%)" offset="0.617188"/><stop stop-opacity="1" stop-color="rgb(50.901794%, 22.47467%, 100%)" offset="0.621094"/><stop stop-opacity="1" stop-color="rgb(51.177979%, 22.3526%, 100%)" offset="0.625"/><stop stop-opacity="1" stop-color="rgb(51.452637%, 22.23053%, 100%)" offset="0.628906"/><stop stop-opacity="1" stop-color="rgb(51.728821%, 22.108459%, 100%)" offset="0.632812"/><stop stop-opacity="1" stop-color="rgb(52.005005%, 21.984863%, 100%)" offset="0.636719"/><stop stop-opacity="1" stop-color="rgb(52.281189%, 21.862793%, 100%)" offset="0.640625"/><stop stop-opacity="1" stop-color="rgb(52.555847%, 21.739197%, 100%)" offset="0.644531"/><stop stop-opacity="1" stop-color="rgb(52.832031%, 21.617126%, 100%)" offset="0.648437"/><stop stop-opacity="1" stop-color="rgb(53.108215%, 21.495056%, 100%)" offset="0.652344"/><stop stop-opacity="1" stop-color="rgb(53.384399%, 21.372986%, 100%)" offset="0.65625"/><stop stop-opacity="1" stop-color="rgb(53.659058%, 21.24939%, 100%)" offset="0.660156"/><stop stop-opacity="1" stop-color="rgb(53.935242%, 21.127319%, 100%)" offset="0.664062"/><stop stop-opacity="1" stop-color="rgb(54.211426%, 21.005249%, 100%)" offset="0.667969"/><stop stop-opacity="1" stop-color="rgb(54.48761%, 20.883179%, 100%)" offset="0.671875"/><stop stop-opacity="1" stop-color="rgb(54.762268%, 20.759583%, 100%)" offset="0.675781"/><stop stop-opacity="1" stop-color="rgb(55.038452%, 20.637512%, 100%)" offset="0.679687"/><stop stop-opacity="1" stop-color="rgb(55.31311%, 20.513916%, 100%)" offset="0.683594"/><stop stop-opacity="1" stop-color="rgb(55.589294%, 20.391846%, 100%)" offset="0.6875"/><stop stop-opacity="1" stop-color="rgb(55.865479%, 20.269775%, 100%)" offset="0.691406"/><stop stop-opacity="1" stop-color="rgb(56.141663%, 20.147705%, 100%)" offset="0.695312"/><stop stop-opacity="1" stop-color="rgb(56.416321%, 20.024109%, 100%)" offset="0.699219"/><stop stop-opacity="1" stop-color="rgb(56.692505%, 19.902039%, 100%)" offset="0.703125"/><stop stop-opacity="1" stop-color="rgb(56.968689%, 19.779968%, 100%)" offset="0.707031"/><stop stop-opacity="1" stop-color="rgb(57.244873%, 19.657898%, 100%)" offset="0.710937"/><stop stop-opacity="1" stop-color="rgb(57.519531%, 19.534302%, 100%)" offset="0.714844"/><stop stop-opacity="1" stop-color="rgb(57.795715%, 19.412231%, 100%)" offset="0.71875"/><stop stop-opacity="1" stop-color="rgb(58.070374%, 19.288635%, 100%)" offset="0.722656"/><stop stop-opacity="1" stop-color="rgb(58.346558%, 19.166565%, 100%)" offset="0.726562"/><stop stop-opacity="1" stop-color="rgb(58.622742%, 19.044495%, 100%)" offset="0.730469"/><stop stop-opacity="1" stop-color="rgb(58.898926%, 18.922424%, 100%)" offset="0.734375"/><stop stop-opacity="1" stop-color="rgb(59.173584%, 18.798828%, 100%)" offset="0.738281"/><stop stop-opacity="1" stop-color="rgb(59.449768%, 18.676758%, 100%)" offset="0.742187"/><stop stop-opacity="1" stop-color="rgb(59.725952%, 18.553162%, 100%)" offset="0.746094"/><stop stop-opacity="1" stop-color="rgb(60.002136%, 18.431091%, 100%)" offset="0.75"/><stop stop-opacity="1" stop-color="rgb(60.276794%, 18.309021%, 100%)" offset="0.753906"/><stop stop-opacity="1" stop-color="rgb(60.552979%, 18.186951%, 100%)" offset="0.757812"/><stop stop-opacity="1" stop-color="rgb(60.829163%, 18.063354%, 100%)" offset="0.761719"/><stop stop-opacity="1" stop-color="rgb(61.105347%, 17.941284%, 100%)" offset="0.765625"/><stop stop-opacity="1" stop-color="rgb(61.380005%, 17.819214%, 100%)" offset="0.769531"/><stop stop-opacity="1" stop-color="rgb(61.656189%, 17.697144%, 100%)" offset="0.773437"/><stop stop-opacity="1" stop-color="rgb(61.930847%, 17.573547%, 100%)" offset="0.777344"/><stop stop-opacity="1" stop-color="rgb(62.207031%, 17.451477%, 100%)" offset="0.78125"/><stop stop-opacity="1" stop-color="rgb(62.483215%, 17.327881%, 100%)" offset="0.785156"/><stop stop-opacity="1" stop-color="rgb(62.759399%, 17.205811%, 100%)" offset="0.789062"/><stop stop-opacity="1" stop-color="rgb(63.034058%, 17.08374%, 100%)" offset="0.792969"/><stop stop-opacity="1" stop-color="rgb(63.310242%, 16.96167%, 100%)" offset="0.796875"/><stop stop-opacity="1" stop-color="rgb(63.586426%, 16.838074%, 100%)" offset="0.800781"/><stop stop-opacity="1" stop-color="rgb(63.86261%, 16.716003%, 100%)" offset="0.804687"/><stop stop-opacity="1" stop-color="rgb(64.137268%, 16.593933%, 100%)" offset="0.808594"/><stop stop-opacity="1" stop-color="rgb(64.413452%, 16.471863%, 100%)" offset="0.8125"/><stop stop-opacity="1" stop-color="rgb(64.689636%, 16.348267%, 100%)" offset="0.816406"/><stop stop-opacity="1" stop-color="rgb(64.96582%, 16.226196%, 100%)" offset="0.820312"/><stop stop-opacity="1" stop-color="rgb(65.240479%, 16.1026%, 100%)" offset="0.824219"/><stop stop-opacity="1" stop-color="rgb(65.516663%, 15.98053%, 100%)" offset="0.828125"/><stop stop-opacity="1" stop-color="rgb(65.791321%, 15.858459%, 100%)" offset="0.832031"/><stop stop-opacity="1" stop-color="rgb(66.067505%, 15.736389%, 100%)" offset="0.835937"/><stop stop-opacity="1" stop-color="rgb(66.343689%, 15.612793%, 100%)" offset="0.839844"/><stop stop-opacity="1" stop-color="rgb(66.619873%, 15.490723%, 100%)" offset="0.84375"/><stop stop-opacity="1" stop-color="rgb(66.894531%, 15.367126%, 100%)" offset="0.847656"/><stop stop-opacity="1" stop-color="rgb(67.170715%, 15.245056%, 100%)" offset="0.851562"/><stop stop-opacity="1" stop-color="rgb(67.446899%, 15.122986%, 100%)" offset="0.855469"/><stop stop-opacity="1" stop-color="rgb(67.723083%, 15.000916%, 100%)" offset="0.859375"/><stop stop-opacity="1" stop-color="rgb(67.997742%, 14.877319%, 100%)" offset="0.863281"/><stop stop-opacity="1" stop-color="rgb(68.273926%, 14.755249%, 100%)" offset="0.867187"/><stop stop-opacity="1" stop-color="rgb(68.548584%, 14.633179%, 100%)" offset="0.871094"/><stop stop-opacity="1" stop-color="rgb(68.824768%, 14.511108%, 100%)" offset="0.875"/><stop stop-opacity="1" stop-color="rgb(69.100952%, 14.387512%, 100%)" offset="0.878906"/><stop stop-opacity="1" stop-color="rgb(69.377136%, 14.265442%, 100%)" offset="0.882812"/><stop stop-opacity="1" stop-color="rgb(69.651794%, 14.141846%, 100%)" offset="0.886719"/><stop stop-opacity="1" stop-color="rgb(69.927979%, 14.019775%, 100%)" offset="0.890625"/><stop stop-opacity="1" stop-color="rgb(70.204163%, 13.897705%, 100%)" offset="0.894531"/><stop stop-opacity="1" stop-color="rgb(70.480347%, 13.775635%, 100%)" offset="0.898437"/><stop stop-opacity="1" stop-color="rgb(70.755005%, 13.652039%, 100%)" offset="0.902344"/><stop stop-opacity="1" stop-color="rgb(71.031189%, 13.529968%, 100%)" offset="0.90625"/><stop stop-opacity="1" stop-color="rgb(71.307373%, 13.407898%, 100%)" offset="0.910156"/><stop stop-opacity="1" stop-color="rgb(71.583557%, 13.285828%, 100%)" offset="0.914062"/><stop stop-opacity="1" stop-color="rgb(71.858215%, 13.162231%, 100%)" offset="0.917969"/><stop stop-opacity="1" stop-color="rgb(72.134399%, 13.040161%, 100%)" offset="0.921875"/><stop stop-opacity="1" stop-color="rgb(72.409058%, 12.916565%, 100%)" offset="0.925781"/><stop stop-opacity="1" stop-color="rgb(72.685242%, 12.794495%, 100%)" offset="0.929687"/><stop stop-opacity="1" stop-color="rgb(72.961426%, 12.672424%, 100%)" offset="0.933594"/><stop stop-opacity="1" stop-color="rgb(73.23761%, 12.550354%, 100%)" offset="0.9375"/><stop stop-opacity="1" stop-color="rgb(73.512268%, 12.426758%, 100%)" offset="0.941406"/><stop stop-opacity="1" stop-color="rgb(73.788452%, 12.304688%, 100%)" offset="0.945312"/><stop stop-opacity="1" stop-color="rgb(74.064636%, 12.181091%, 100%)" offset="0.949219"/><stop stop-opacity="1" stop-color="rgb(74.34082%, 12.059021%, 100%)" offset="0.953125"/><stop stop-opacity="1" stop-color="rgb(74.615479%, 11.936951%, 100%)" offset="0.957031"/><stop stop-opacity="1" stop-color="rgb(74.891663%, 11.81488%, 100%)" offset="0.960938"/><stop stop-opacity="1" stop-color="rgb(75.167847%, 11.691284%, 100%)" offset="0.964844"/><stop stop-opacity="1" stop-color="rgb(75.444031%, 11.569214%, 100%)" offset="0.96875"/><stop stop-opacity="1" stop-color="rgb(75.718689%, 11.447144%, 100%)" offset="0.972656"/><stop stop-opacity="1" stop-color="rgb(75.994873%, 11.325073%, 100%)" offset="0.976562"/><stop stop-opacity="1" stop-color="rgb(76.269531%, 11.201477%, 100%)" offset="0.980469"/><stop stop-opacity="1" stop-color="rgb(76.545715%, 11.079407%, 100%)" offset="0.984375"/><stop stop-opacity="1" stop-color="rgb(76.821899%, 10.955811%, 100%)" offset="0.988281"/><stop stop-opacity="1" stop-color="rgb(77.098083%, 10.83374%, 100%)" offset="0.992188"/><stop stop-opacity="1" stop-color="rgb(77.372742%, 10.71167%, 100%)" offset="0.996094"/><stop stop-opacity="1" stop-color="rgb(77.648926%, 10.5896%, 100%)" offset="1"/></linearGradient></defs><g clip-path="url(#247721ea72)"><rect x="-37.5" fill="url(#cc3cb561af)" width="450" y="-37.499999" height="449.999989"/></g><path fill="#ffffff" d="M 186.5625 155.859375 L 186.5625 136.640625 C 180 134.84375 177.109375 127.96875 175.859375 122.1875 C 175.15625 122.8125 174.375 123.4375 173.59375 124.0625 C 165.390625 130.15625 151.09375 135 131.09375 138.515625 L 131.09375 155.78125 C 131.09375 171.09375 143.515625 183.59375 158.90625 183.59375 C 174.140625 183.59375 186.5625 171.171875 186.5625 155.859375 Z M 186.5625 155.859375 " fill-opacity="1" fill-rule="nonzero"/><path fill="#ffffff" d="M 122.265625 154.53125 L 125.078125 154.53125 L 125.078125 144.84375 L 122.265625 144.84375 C 122.109375 144.84375 121.953125 144.84375 121.796875 144.84375 C 121.328125 145.078125 120.859375 145.234375 120.3125 145.234375 C 118.59375 146.015625 117.5 147.65625 117.5 149.609375 C 117.5 152.421875 119.6875 154.53125 122.265625 154.53125 Z M 122.265625 154.53125 " fill-opacity="1" fill-rule="nonzero"/><path fill="#ffffff" d="M 125.15625 136.015625 C 125.15625 134.53125 126.171875 133.28125 127.578125 133.125 C 171.875 125.859375 174.765625 114.296875 174.84375 113.59375 C 174.921875 112.03125 176.171875 110.78125 177.734375 110.703125 C 179.296875 110.703125 180.703125 111.953125 180.703125 113.515625 L 180.703125 113.59375 C 180.703125 114.21875 181.09375 130.78125 189.609375 131.09375 C 191.171875 131.171875 192.421875 132.421875 192.421875 134.0625 L 192.421875 138.984375 L 195.3125 138.984375 L 195.3125 117.65625 C 195.3125 116.09375 195.15625 114.6875 194.921875 113.359375 C 192.5 101.015625 181.40625 101.875 180.9375 101.875 C 179.375 102.03125 177.96875 100.9375 177.734375 99.375 C 177.109375 95.3125 172.421875 92.890625 171.40625 92.5 C 158.359375 89.609375 147.03125 90.3125 137.578125 94.53125 C 128.75 98.515625 123.046875 107.421875 123.046875 117.1875 L 123.046875 138.90625 L 124.921875 138.90625 Z M 125.15625 136.015625 " fill-opacity="1" fill-rule="nonzero"/><path fill="#ffffff" d="M 192.578125 154.53125 L 195.546875 154.53125 C 198.203125 154.53125 200.3125 152.34375 200.3125 149.765625 C 200.3125 147.109375 198.125 145 195.546875 145 L 192.578125 145 Z M 192.578125 154.53125 " fill-opacity="1" fill-rule="nonzero"/><path fill="#ffffff" d="M 148.359375 187.8125 L 148.359375 193.125 C 148.359375 193.203125 148.359375 193.28125 148.359375 193.359375 L 148.359375 195.078125 C 148.359375 200.859375 153.046875 205.546875 158.828125 205.546875 C 164.609375 205.546875 169.296875 200.859375 169.296875 195.078125 L 169.296875 193.359375 C 169.296875 193.28125 169.296875 193.203125 169.296875 193.125 L 169.296875 187.8125 C 166.015625 188.90625 162.421875 189.453125 158.828125 189.453125 C 155.234375 189.53125 151.640625 188.984375 148.359375 187.8125 Z M 148.359375 187.8125 " fill-opacity="1" fill-rule="nonzero"/><path fill="#ffffff" d="M 107.65625 281.796875 C 107.65625 282.8125 108.59375 283.75 109.609375 283.75 L 208.515625 283.75 C 209.53125 283.75 210.46875 282.8125 210.46875 281.796875 L 210.46875 231.640625 C 210.46875 230.625 209.53125 229.6875 208.515625 229.6875 L 109.6875 229.6875 C 108.671875 229.6875 107.734375 230.625 107.734375 231.640625 L 107.734375 270.625 C 107.734375 270.703125 107.8125 270.859375 107.8125 270.9375 C 107.8125 271.09375 107.8125 271.25 107.734375 271.40625 Z M 166.5625 246.171875 L 180.78125 254.375 C 181.71875 254.921875 182.265625 255.859375 182.265625 256.953125 C 182.265625 257.96875 181.71875 258.984375 180.78125 259.53125 L 166.5625 267.734375 C 166.09375 267.96875 165.625 268.125 165.078125 268.125 C 164.0625 268.125 163.046875 267.578125 162.5 266.640625 C 161.71875 265.234375 162.1875 263.4375 163.59375 262.578125 L 173.359375 256.953125 L 163.59375 251.328125 C 162.1875 250.546875 161.71875 248.75 162.5 247.265625 C 163.4375 245.78125 165.234375 245.3125 166.5625 246.171875 Z M 161.171875 238.59375 C 162.734375 238.984375 163.75 240.625 163.359375 242.109375 L 155.78125 272.96875 C 155.46875 274.296875 154.21875 275.234375 152.96875 275.234375 C 152.734375 275.234375 152.5 275.15625 152.265625 275.15625 C 150.703125 274.765625 149.6875 273.125 150.078125 271.640625 L 157.65625 240.78125 C 157.96875 239.140625 159.53125 238.203125 161.171875 238.59375 Z M 132.421875 254.375 L 146.640625 246.171875 C 148.046875 245.390625 149.84375 245.859375 150.703125 247.265625 C 151.484375 248.671875 151.015625 250.46875 149.609375 251.328125 L 139.84375 256.953125 L 149.609375 262.578125 C 151.015625 263.359375 151.484375 265.15625 150.703125 266.640625 C 150.15625 267.578125 149.140625 268.125 148.125 268.125 C 147.65625 268.125 147.109375 267.96875 146.640625 267.734375 L 132.421875 259.53125 C 131.484375 258.984375 130.9375 258.046875 130.9375 256.953125 C 131.015625 255.859375 131.5625 254.84375 132.421875 254.375 Z M 132.421875 254.375 " fill-opacity="1" fill-rule="nonzero"/><path fill="#ffffff" d="M 101.71875 245 L 95.78125 245 C 95.78125 252.34375 96.953125 260.78125 101.71875 265.546875 Z M 101.71875 245 " fill-opacity="1" fill-rule="nonzero"/><path fill="#ffffff" d="M 101.71875 231.640625 C 101.71875 227.265625 105.234375 223.828125 109.53125 223.828125 L 208.4375 223.828125 C 212.8125 223.828125 216.25 227.34375 216.25 231.640625 L 216.25 239.0625 L 221.484375 239.0625 C 221.484375 238.75 221.40625 238.4375 221.40625 238.125 C 220.46875 226.875 215.859375 216.328125 208.515625 208.4375 C 196.015625 195 181.71875 194.921875 175.078125 195.78125 C 174.765625 204.453125 167.5 211.484375 158.75 211.484375 C 150 211.484375 142.734375 204.453125 142.34375 195.78125 C 135.78125 194.921875 121.40625 195.078125 108.90625 208.4375 C 101.640625 216.25 97.03125 226.640625 96.015625 237.65625 C 95.9375 238.125 95.9375 238.59375 95.9375 238.984375 L 101.640625 238.984375 C 101.71875 239.0625 101.71875 231.640625 101.71875 231.640625 Z M 101.71875 231.640625 " fill-opacity="1" fill-rule="nonzero"/><path fill="#ffffff" d="M 216.40625 265 C 220.703125 260.234375 221.796875 252.03125 221.796875 245 L 216.40625 245 Z M 216.40625 265 " fill-opacity="1" fill-rule="nonzero"/><path fill="#ffffff" d="M 67.5 289.6875 L 245.3125 289.6875 L 245.3125 295.46875 L 67.5 295.46875 Z M 67.5 289.6875 " fill-opacity="1" fill-rule="nonzero"/><path fill="#ffffff" d="M 216.953125 155.546875 C 216.953125 156.640625 217.890625 157.578125 218.984375 157.578125 L 305.46875 157.578125 C 306.5625 157.578125 307.5 156.640625 307.5 155.546875 L 307.5 98.984375 L 216.953125 98.984375 Z M 232.5 130.625 C 231.40625 130.15625 230.703125 129.140625 230.703125 127.890625 C 230.703125 126.71875 231.328125 125.625 232.421875 125.15625 L 238.828125 122.265625 L 232.5 119.609375 C 231.40625 119.140625 230.703125 118.125 230.703125 116.875 C 230.703125 115.703125 231.328125 114.609375 232.421875 114.140625 L 262.109375 100.703125 C 262.890625 100.390625 263.828125 100.390625 264.53125 100.703125 L 292.109375 113.671875 C 293.125 114.140625 293.828125 115.15625 293.828125 116.328125 C 293.828125 117.5 293.203125 118.515625 292.109375 118.984375 L 286.171875 121.796875 L 292.109375 124.609375 C 293.125 125.078125 293.828125 126.09375 293.828125 127.265625 C 293.828125 128.4375 293.203125 129.453125 292.109375 129.921875 L 286.171875 132.734375 L 292.109375 135.546875 C 293.125 136.015625 293.828125 137.109375 293.828125 138.28125 C 293.828125 139.453125 293.203125 140.46875 292.109375 140.9375 L 264.53125 154.0625 C 264.140625 154.296875 263.75 154.375 263.28125 154.375 C 262.890625 154.375 262.5 154.296875 262.109375 154.140625 L 232.421875 141.71875 C 231.328125 141.25 230.625 140.234375 230.625 138.984375 C 230.625 137.734375 231.25 136.71875 232.34375 136.25 L 238.75 133.359375 Z M 232.5 130.625 " fill-opacity="1" fill-rule="nonzero"/><path fill="#ffffff" d="M 283.90625 138.4375 L 279.21875 136.25 L 264.53125 143.125 C 264.140625 143.359375 263.75 143.4375 263.28125 143.4375 C 262.890625 143.4375 262.5 143.359375 262.109375 143.203125 L 246.171875 136.484375 L 240.9375 138.828125 L 263.125 148.125 Z M 283.90625 138.4375 " fill-opacity="1" fill-rule="nonzero"/><path fill="#ffffff" d="M 263.28125 132.34375 C 262.890625 132.34375 262.5 132.265625 262.109375 132.109375 L 257.578125 130.234375 L 257.5 130.234375 L 246.171875 125.46875 L 240.9375 127.8125 L 247.265625 130.46875 L 263.203125 137.109375 L 283.828125 127.421875 L 279.140625 125.234375 L 264.453125 132.109375 C 264.140625 132.265625 263.671875 132.34375 263.28125 132.34375 Z M 263.28125 132.34375 " fill-opacity="1" fill-rule="nonzero"/><path fill="#ffffff" d="M 247.421875 119.53125 L 259.84375 124.765625 L 263.203125 126.171875 L 277.96875 119.296875 L 283.90625 116.484375 L 263.28125 106.796875 L 241.015625 116.875 L 247.1875 119.453125 C 247.265625 119.53125 247.34375 119.53125 247.421875 119.53125 Z M 247.421875 119.53125 " fill-opacity="1" fill-rule="nonzero"/><path fill="#ffffff" d="M 305.46875 79.53125 L 218.984375 79.53125 C 217.890625 79.53125 216.953125 80.46875 216.953125 81.484375 L 216.953125 93.046875 L 307.5 93.046875 L 307.5 81.484375 C 307.5 80.390625 306.5625 79.53125 305.46875 79.53125 Z M 226.796875 90.078125 C 225.078125 90.078125 223.671875 88.671875 223.671875 86.953125 C 223.671875 85.234375 225.078125 83.828125 226.796875 83.828125 C 228.515625 83.828125 229.921875 85.234375 229.921875 86.953125 C 229.921875 88.671875 228.515625 90.078125 226.796875 90.078125 Z M 238.359375 90.078125 C 236.640625 90.078125 235.234375 88.671875 235.234375 86.953125 C 235.234375 85.234375 236.640625 83.828125 238.359375 83.828125 C 240.078125 83.828125 241.484375 85.234375 241.484375 86.953125 C 241.484375 88.671875 240.078125 90.078125 238.359375 90.078125 Z M 249.921875 90.078125 C 248.203125 90.078125 246.796875 88.671875 246.796875 86.953125 C 246.796875 85.234375 248.203125 83.828125 249.921875 83.828125 C 251.640625 83.828125 253.046875 85.234375 253.046875 86.953125 C 253.046875 88.671875 251.640625 90.078125 249.921875 90.078125 Z M 301.171875 89.921875 L 261.40625 89.921875 C 259.765625 89.921875 258.4375 88.59375 258.4375 86.953125 C 258.4375 85.3125 259.765625 83.984375 261.40625 83.984375 L 301.171875 83.984375 C 302.8125 83.984375 304.140625 85.3125 304.140625 86.953125 C 304.140625 88.515625 302.8125 89.921875 301.171875 89.921875 Z M 301.171875 89.921875 " fill-opacity="1" fill-rule="nonzero"/></svg>