<svg xmlns="http://www.w3.org/2000/svg" xmlns:xlink="http://www.w3.org/1999/xlink" width="500" zoomAndPan="magnify" viewBox="0 0 375 374.999991" height="500" preserveAspectRatio="xMidYMid meet" version="1.0"><defs><clipPath id="0739213d92"><path d="M 145.546875 196.40625 L 111.71875 218.75 C 101.015625 202.734375 95.078125 183.671875 95.078125 163.671875 C 95.078125 160.078125 95.234375 156.640625 95.625 153.203125 L 126.71875 153.203125 L 126.71875 157.109375 C 126.71875 162.109375 130.78125 166.09375 135.703125 166.09375 L 137.109375 166.09375 C 138.359375 170.390625 140 174.453125 142.1875 178.359375 L 141.171875 179.375 C 137.65625 182.890625 137.65625 188.515625 141.171875 192.03125 Z M 315.78125 210.625 L 293.671875 171.484375 C 293.359375 170.9375 293.28125 170.390625 293.28125 169.765625 C 293.4375 167.65625 293.515625 165.625 293.515625 163.59375 C 293.515625 108.90625 248.984375 64.375 194.296875 64.375 C 171.953125 64.375 151.25 71.796875 134.6875 84.375 L 149.84375 98.671875 L 151.71875 96.796875 C 155.234375 93.28125 160.859375 93.28125 164.375 96.796875 L 165.390625 97.8125 C 169.296875 95.625 173.4375 93.90625 177.65625 92.734375 L 177.65625 91.328125 C 177.65625 86.40625 181.640625 82.34375 186.640625 82.34375 L 201.5625 82.34375 C 206.484375 82.34375 210.546875 86.328125 210.546875 91.328125 L 210.546875 92.734375 C 214.84375 93.984375 218.90625 95.703125 222.8125 97.8125 L 223.828125 96.796875 C 225.546875 95.078125 227.734375 94.140625 230.15625 94.140625 C 232.578125 94.140625 234.765625 95.078125 236.484375 96.796875 L 247.03125 107.34375 C 250.546875 110.859375 250.546875 116.484375 247.03125 120 L 246.015625 121.015625 C 248.203125 124.921875 249.84375 128.984375 251.09375 133.28125 L 252.5 133.28125 C 257.421875 133.28125 261.484375 137.265625 261.484375 142.265625 L 261.484375 157.1875 C 261.484375 162.109375 257.5 166.171875 252.5 166.171875 L 251.09375 166.171875 C 249.84375 170.46875 248.125 174.53125 246.015625 178.4375 L 247.03125 179.453125 C 250.546875 182.96875 250.546875 188.59375 247.03125 192.109375 L 236.484375 202.65625 C 232.96875 206.171875 227.34375 206.171875 223.828125 202.65625 L 222.65625 201.5625 C 218.75 203.75 214.609375 205.390625 210.390625 206.640625 L 210.390625 208.046875 C 210.390625 212.96875 206.40625 217.03125 201.40625 217.03125 L 186.484375 217.03125 C 181.5625 217.03125 177.5 213.046875 177.5 208.046875 L 177.5 206.640625 C 173.203125 205.390625 169.140625 203.671875 165.234375 201.5625 L 164.21875 202.578125 C 160.703125 206.09375 155.078125 206.09375 151.5625 202.578125 L 150.546875 201.5625 L 115.703125 224.53125 C 122.578125 233.359375 131.015625 241.09375 140.78125 247.34375 C 141.640625 247.890625 142.1875 248.90625 142.1875 249.921875 L 142.1875 302.34375 C 142.1875 308.984375 147.65625 314.453125 154.296875 314.453125 L 231.640625 314.453125 C 238.28125 314.453125 243.75 308.984375 243.75 302.34375 L 243.75 280.78125 C 232.1875 277.5 222.34375 272.890625 214.6875 267.109375 C 213.125 265.9375 212.8125 263.75 213.984375 262.1875 C 215.15625 260.625 217.34375 260.3125 218.90625 261.484375 C 226.328125 267.109375 236.015625 271.484375 247.734375 274.609375 C 248.046875 274.6875 248.359375 274.84375 248.59375 275 L 276.171875 275 C 280.703125 275 284.453125 271.328125 284.453125 266.71875 L 284.453125 220.46875 C 284.453125 218.75 285.859375 217.421875 287.5 217.421875 L 307.109375 217.421875 C 310.234375 217.421875 314.21875 215.3125 315.625 212.96875 C 316.328125 211.796875 316.09375 211.09375 315.78125 210.625 Z M 96.640625 146.171875 L 126.71875 146.171875 L 126.71875 142.265625 C 126.71875 137.34375 130.703125 133.28125 135.703125 133.28125 L 137.109375 133.28125 C 138.359375 128.984375 140.078125 124.921875 142.1875 121.015625 L 141.171875 120 C 137.65625 116.484375 137.65625 110.859375 141.171875 107.34375 L 144.84375 103.671875 L 129.140625 88.828125 C 112.5 103.4375 100.703125 123.515625 96.640625 146.171875 Z M 149.6875 122.109375 C 150.546875 120.78125 150.390625 118.984375 149.21875 117.8125 L 146.328125 114.921875 C 145.625 114.140625 145.625 112.890625 146.328125 112.1875 L 156.875 101.640625 C 157.65625 100.9375 158.90625 100.9375 159.609375 101.640625 L 162.5 104.53125 C 163.59375 105.625 165.390625 105.859375 166.796875 105 C 171.5625 102.109375 176.71875 99.921875 182.109375 98.671875 C 183.75 98.28125 184.84375 96.875 184.84375 95.234375 L 184.84375 91.09375 C 184.84375 90 185.78125 89.140625 186.796875 89.140625 L 201.71875 89.140625 C 202.8125 89.140625 203.671875 90.078125 203.671875 91.09375 L 203.671875 95.234375 C 203.671875 96.875 204.84375 98.28125 206.40625 98.671875 C 211.796875 99.921875 216.953125 102.03125 221.71875 105 C 223.046875 105.9375 224.84375 105.703125 226.015625 104.53125 L 228.90625 101.640625 C 229.375 101.171875 229.921875 101.09375 230.234375 101.09375 C 230.46875 101.09375 231.09375 101.171875 231.5625 101.640625 L 242.109375 112.1875 C 242.8125 112.96875 242.8125 114.21875 242.109375 114.921875 L 239.21875 117.8125 C 238.125 118.90625 237.890625 120.703125 238.75 122.109375 C 241.640625 126.875 243.828125 132.03125 245.078125 137.421875 C 245.46875 139.0625 246.875 140.15625 248.515625 140.15625 L 252.65625 140.15625 C 253.75 140.15625 254.609375 141.09375 254.609375 142.109375 L 254.609375 157.03125 C 254.609375 158.125 253.671875 158.984375 252.65625 158.984375 L 248.515625 158.984375 C 246.875 158.984375 245.46875 160.15625 245.078125 161.71875 C 243.828125 167.109375 241.71875 172.265625 238.75 177.03125 C 237.890625 178.359375 238.046875 180.15625 239.21875 181.328125 L 242.109375 184.21875 C 242.8125 185 242.8125 186.25 242.109375 186.953125 L 231.5625 197.5 C 230.78125 198.203125 229.53125 198.203125 228.828125 197.5 L 225.9375 194.609375 C 224.84375 193.515625 223.046875 193.28125 221.640625 194.140625 C 216.875 197.03125 211.71875 199.21875 206.328125 200.46875 C 204.6875 200.859375 203.59375 202.265625 203.59375 203.90625 L 203.59375 208.28125 C 203.59375 209.375 202.65625 210.234375 201.640625 210.234375 L 186.71875 210.234375 C 185.625 210.234375 184.765625 209.296875 184.765625 208.28125 L 184.765625 204.140625 C 184.765625 202.5 183.59375 201.09375 182.03125 200.703125 C 176.640625 199.453125 171.484375 197.34375 166.71875 194.375 C 166.09375 193.984375 165.46875 193.828125 164.84375 193.828125 C 163.90625 193.828125 163.046875 194.140625 162.34375 194.84375 L 159.453125 197.734375 C 158.671875 198.4375 157.421875 198.4375 156.71875 197.734375 L 146.171875 187.1875 C 145.46875 186.40625 145.46875 185.15625 146.171875 184.453125 L 149.0625 181.5625 C 150.15625 180.46875 150.390625 178.671875 149.53125 177.265625 C 146.640625 172.5 144.453125 167.34375 143.203125 161.953125 C 142.8125 160.3125 141.40625 159.21875 139.765625 159.21875 L 135.625 159.21875 C 134.53125 159.21875 133.671875 158.28125 133.671875 157.265625 L 133.671875 142.34375 C 133.671875 141.25 134.609375 140.390625 135.625 140.390625 L 139.765625 140.390625 C 141.40625 140.390625 142.8125 139.21875 143.203125 137.65625 C 144.53125 132.1875 146.640625 127.03125 149.6875 122.109375 Z M 157.421875 149.6875 C 157.421875 169.84375 173.828125 186.25 193.984375 186.25 C 214.140625 186.25 230.546875 169.84375 230.546875 149.6875 C 230.546875 129.53125 214.140625 113.125 193.984375 113.125 C 173.828125 113.125 157.421875 129.53125 157.421875 149.6875 Z M 193.984375 179.21875 C 210.234375 179.21875 223.515625 165.9375 223.515625 149.6875 C 223.515625 133.4375 210.234375 120.15625 193.984375 120.15625 C 177.65625 120.15625 164.453125 133.4375 164.453125 149.6875 C 164.453125 165.9375 177.734375 179.21875 193.984375 179.21875 Z M 89.53125 153.203125 C 89.765625 150.859375 90.078125 148.515625 90.46875 146.171875 L 81.953125 146.171875 C 82.265625 147.265625 82.34375 148.515625 82.34375 149.6875 C 82.34375 150.859375 82.1875 152.109375 81.953125 153.203125 Z M 90.546875 232.734375 C 89.140625 233.671875 88.59375 235.390625 89.21875 236.953125 L 93.125 246.796875 C 95 245.46875 97.265625 244.53125 99.6875 244.21875 L 96.875 237.03125 L 110.859375 227.8125 C 109.453125 225.9375 108.046875 224.0625 106.71875 222.109375 Z M 67.109375 141.484375 C 62.578125 141.484375 58.90625 145.15625 58.90625 149.6875 C 58.90625 154.21875 62.578125 157.890625 67.109375 157.890625 C 71.640625 157.890625 75.3125 154.21875 75.3125 149.6875 C 75.3125 145.15625 71.640625 141.484375 67.109375 141.484375 Z M 86.875 80.9375 C 86.875 79.453125 86.484375 78.046875 85.78125 76.875 C 84.375 74.453125 81.71875 72.8125 78.671875 72.8125 C 74.140625 72.8125 70.46875 76.484375 70.46875 81.015625 C 70.46875 85.546875 74.140625 89.21875 78.671875 89.21875 C 83.203125 89.140625 86.875 85.46875 86.875 80.9375 Z M 107.5 68.359375 L 124.6875 84.609375 C 126.484375 83.046875 128.28125 81.5625 130.15625 80.078125 L 110.390625 61.40625 C 109.296875 60.3125 107.578125 60.15625 106.25 60.9375 L 89.6875 70.46875 C 91.328125 72.1875 92.5 74.21875 93.203125 76.5625 Z M 98.59375 251.71875 C 94.453125 253.4375 92.421875 258.28125 94.21875 262.421875 C 95.9375 266.5625 100.78125 268.59375 104.921875 266.796875 C 109.0625 265.078125 111.09375 260.234375 109.296875 256.09375 C 107.578125 251.953125 102.8125 250 98.59375 251.71875 Z M 375 187.5 C 375 212.8125 370.078125 237.34375 360.234375 260.46875 C 350.78125 282.8125 337.265625 302.8125 320.078125 320.078125 C 302.890625 337.34375 282.8125 350.78125 260.46875 360.234375 C 237.34375 370.078125 212.8125 375 187.5 375 C 162.1875 375 137.65625 370.078125 114.53125 360.234375 C 92.1875 350.78125 72.109375 337.265625 54.921875 320.078125 C 37.734375 302.890625 24.21875 282.8125 14.765625 260.46875 C 4.921875 237.34375 0 212.8125 0 187.5 C 0 162.1875 4.921875 137.65625 14.765625 114.53125 C 24.21875 92.1875 37.734375 72.109375 54.921875 54.921875 C 72.109375 37.734375 92.1875 24.21875 114.53125 14.765625 C 137.65625 4.921875 162.1875 0 187.5 0 C 212.8125 0 237.34375 4.921875 260.46875 14.765625 C 282.8125 24.21875 302.890625 37.734375 320.078125 54.921875 C 337.265625 72.109375 350.78125 92.1875 360.234375 114.53125 C 370 137.65625 375 162.1875 375 187.5 Z M 368.671875 187.5 C 368.671875 87.578125 287.421875 6.328125 187.5 6.328125 C 87.578125 6.328125 6.328125 87.578125 6.328125 187.5 C 6.328125 287.421875 87.578125 368.671875 187.5 368.671875 C 287.421875 368.671875 368.671875 287.421875 368.671875 187.5 Z M 368.671875 187.5 " clip-rule="nonzero"/></clipPath><linearGradient x1="6" gradientTransform="matrix(0.78125, 0, 0, 0.78125, -4.687495, -4.6875)" y1="6" x2="486.000012" gradientUnits="userSpaceOnUse" y2="486.000012" id="c5d8c661e6"><stop stop-opacity="1" stop-color="rgb(0%, 85.879517%, 87.059021%)" offset="0"/><stop stop-opacity="1" stop-color="rgb(0%, 85.879517%, 87.059021%)" offset="0.125"/><stop stop-opacity="1" stop-color="rgb(0%, 85.879517%, 87.059021%)" offset="0.140625"/><stop stop-opacity="1" stop-color="rgb(0.137329%, 85.758972%, 87.077332%)" offset="0.148438"/><stop stop-opacity="1" stop-color="rgb(0.820923%, 85.163879%, 87.167358%)" offset="0.152344"/><stop stop-opacity="1" stop-color="rgb(1.367188%, 84.689331%, 87.239075%)" offset="0.15625"/><stop stop-opacity="1" stop-color="rgb(1.913452%, 84.214783%, 87.309265%)" offset="0.160156"/><stop stop-opacity="1" stop-color="rgb(2.459717%, 83.74176%, 87.380981%)" offset="0.164062"/><stop stop-opacity="1" stop-color="rgb(3.004456%, 83.267212%, 87.452698%)" offset="0.167969"/><stop stop-opacity="1" stop-color="rgb(3.55072%, 82.792664%, 87.524414%)" offset="0.171875"/><stop stop-opacity="1" stop-color="rgb(4.096985%, 82.318115%, 87.59613%)" offset="0.175781"/><stop stop-opacity="1" stop-color="rgb(4.64325%, 81.843567%, 87.667847%)" offset="0.179688"/><stop stop-opacity="1" stop-color="rgb(5.189514%, 81.369019%, 87.738037%)" offset="0.183594"/><stop stop-opacity="1" stop-color="rgb(5.735779%, 80.89447%, 87.809753%)" offset="0.1875"/><stop stop-opacity="1" stop-color="rgb(6.280518%, 80.419922%, 87.88147%)" offset="0.191406"/><stop stop-opacity="1" stop-color="rgb(6.826782%, 79.945374%, 87.953186%)" offset="0.195312"/><stop stop-opacity="1" stop-color="rgb(7.373047%, 79.470825%, 88.024902%)" offset="0.199219"/><stop stop-opacity="1" stop-color="rgb(7.919312%, 78.996277%, 88.096619%)" offset="0.203125"/><stop stop-opacity="1" stop-color="rgb(8.46405%, 78.521729%, 88.166809%)" offset="0.207031"/><stop stop-opacity="1" stop-color="rgb(9.010315%, 78.04718%, 88.238525%)" offset="0.210938"/><stop stop-opacity="1" stop-color="rgb(9.55658%, 77.572632%, 88.310242%)" offset="0.214844"/><stop stop-opacity="1" stop-color="rgb(10.102844%, 77.099609%, 88.381958%)" offset="0.21875"/><stop stop-opacity="1" stop-color="rgb(10.647583%, 76.625061%, 88.453674%)" offset="0.222656"/><stop stop-opacity="1" stop-color="rgb(11.193848%, 76.150513%, 88.525391%)" offset="0.226562"/><stop stop-opacity="1" stop-color="rgb(11.740112%, 75.675964%, 88.597107%)" offset="0.230469"/><stop stop-opacity="1" stop-color="rgb(12.286377%, 75.201416%, 88.668823%)" offset="0.234375"/><stop stop-opacity="1" stop-color="rgb(12.831116%, 74.726868%, 88.739014%)" offset="0.238281"/><stop stop-opacity="1" stop-color="rgb(13.37738%, 74.252319%, 88.81073%)" offset="0.242188"/><stop stop-opacity="1" stop-color="rgb(13.923645%, 73.777771%, 88.882446%)" offset="0.246094"/><stop stop-opacity="1" stop-color="rgb(14.46991%, 73.303223%, 88.954163%)" offset="0.25"/><stop stop-opacity="1" stop-color="rgb(15.016174%, 72.828674%, 89.025879%)" offset="0.253906"/><stop stop-opacity="1" stop-color="rgb(15.562439%, 72.354126%, 89.097595%)" offset="0.257812"/><stop stop-opacity="1" stop-color="rgb(16.107178%, 71.879578%, 89.167786%)" offset="0.261719"/><stop stop-opacity="1" stop-color="rgb(16.653442%, 71.405029%, 89.239502%)" offset="0.265625"/><stop stop-opacity="1" stop-color="rgb(17.199707%, 70.930481%, 89.311218%)" offset="0.269531"/><stop stop-opacity="1" stop-color="rgb(17.745972%, 70.457458%, 89.382935%)" offset="0.273438"/><stop stop-opacity="1" stop-color="rgb(18.29071%, 69.98291%, 89.454651%)" offset="0.277344"/><stop stop-opacity="1" stop-color="rgb(18.836975%, 69.508362%, 89.526367%)" offset="0.28125"/><stop stop-opacity="1" stop-color="rgb(19.38324%, 69.033813%, 89.596558%)" offset="0.285156"/><stop stop-opacity="1" stop-color="rgb(19.929504%, 68.559265%, 89.668274%)" offset="0.289062"/><stop stop-opacity="1" stop-color="rgb(20.474243%, 68.084717%, 89.73999%)" offset="0.292969"/><stop stop-opacity="1" stop-color="rgb(21.020508%, 67.610168%, 89.811707%)" offset="0.296875"/><stop stop-opacity="1" stop-color="rgb(21.566772%, 67.13562%, 89.883423%)" offset="0.300781"/><stop stop-opacity="1" stop-color="rgb(22.113037%, 66.661072%, 89.955139%)" offset="0.304688"/><stop stop-opacity="1" stop-color="rgb(22.657776%, 66.186523%, 90.026855%)" offset="0.308594"/><stop stop-opacity="1" stop-color="rgb(23.204041%, 65.711975%, 90.098572%)" offset="0.3125"/><stop stop-opacity="1" stop-color="rgb(23.750305%, 65.237427%, 90.168762%)" offset="0.316406"/><stop stop-opacity="1" stop-color="rgb(24.29657%, 64.762878%, 90.240479%)" offset="0.320312"/><stop stop-opacity="1" stop-color="rgb(24.842834%, 64.28833%, 90.312195%)" offset="0.324219"/><stop stop-opacity="1" stop-color="rgb(25.389099%, 63.815308%, 90.383911%)" offset="0.328125"/><stop stop-opacity="1" stop-color="rgb(25.933838%, 63.340759%, 90.455627%)" offset="0.332031"/><stop stop-opacity="1" stop-color="rgb(26.480103%, 62.866211%, 90.527344%)" offset="0.335938"/><stop stop-opacity="1" stop-color="rgb(27.026367%, 62.391663%, 90.597534%)" offset="0.339844"/><stop stop-opacity="1" stop-color="rgb(27.572632%, 61.917114%, 90.66925%)" offset="0.34375"/><stop stop-opacity="1" stop-color="rgb(28.117371%, 61.442566%, 90.740967%)" offset="0.347656"/><stop stop-opacity="1" stop-color="rgb(28.663635%, 60.968018%, 90.812683%)" offset="0.351562"/><stop stop-opacity="1" stop-color="rgb(29.2099%, 60.493469%, 90.884399%)" offset="0.355469"/><stop stop-opacity="1" stop-color="rgb(29.756165%, 60.018921%, 90.956116%)" offset="0.359375"/><stop stop-opacity="1" stop-color="rgb(30.300903%, 59.544373%, 91.026306%)" offset="0.363281"/><stop stop-opacity="1" stop-color="rgb(30.847168%, 59.069824%, 91.098022%)" offset="0.367188"/><stop stop-opacity="1" stop-color="rgb(31.393433%, 58.595276%, 91.169739%)" offset="0.371094"/><stop stop-opacity="1" stop-color="rgb(31.939697%, 58.120728%, 91.241455%)" offset="0.375"/><stop stop-opacity="1" stop-color="rgb(32.484436%, 57.646179%, 91.313171%)" offset="0.378906"/><stop stop-opacity="1" stop-color="rgb(33.030701%, 57.173157%, 91.384888%)" offset="0.382813"/><stop stop-opacity="1" stop-color="rgb(33.576965%, 56.698608%, 91.456604%)" offset="0.386719"/><stop stop-opacity="1" stop-color="rgb(34.12323%, 56.22406%, 91.52832%)" offset="0.390625"/><stop stop-opacity="1" stop-color="rgb(34.669495%, 55.749512%, 91.598511%)" offset="0.394531"/><stop stop-opacity="1" stop-color="rgb(35.215759%, 55.274963%, 91.670227%)" offset="0.398438"/><stop stop-opacity="1" stop-color="rgb(35.760498%, 54.800415%, 91.741943%)" offset="0.402344"/><stop stop-opacity="1" stop-color="rgb(36.306763%, 54.325867%, 91.81366%)" offset="0.40625"/><stop stop-opacity="1" stop-color="rgb(36.853027%, 53.851318%, 91.885376%)" offset="0.410156"/><stop stop-opacity="1" stop-color="rgb(37.399292%, 53.37677%, 91.957092%)" offset="0.414062"/><stop stop-opacity="1" stop-color="rgb(37.944031%, 52.902222%, 92.027283%)" offset="0.417969"/><stop stop-opacity="1" stop-color="rgb(38.490295%, 52.427673%, 92.098999%)" offset="0.421875"/><stop stop-opacity="1" stop-color="rgb(39.03656%, 51.953125%, 92.170715%)" offset="0.425781"/><stop stop-opacity="1" stop-color="rgb(39.582825%, 51.478577%, 92.242432%)" offset="0.429688"/><stop stop-opacity="1" stop-color="rgb(40.127563%, 51.004028%, 92.314148%)" offset="0.433594"/><stop stop-opacity="1" stop-color="rgb(40.673828%, 50.531006%, 92.385864%)" offset="0.4375"/><stop stop-opacity="1" stop-color="rgb(41.220093%, 50.056458%, 92.456055%)" offset="0.441406"/><stop stop-opacity="1" stop-color="rgb(41.766357%, 49.581909%, 92.527771%)" offset="0.445312"/><stop stop-opacity="1" stop-color="rgb(42.311096%, 49.107361%, 92.599487%)" offset="0.449219"/><stop stop-opacity="1" stop-color="rgb(42.857361%, 48.632812%, 92.671204%)" offset="0.453125"/><stop stop-opacity="1" stop-color="rgb(43.403625%, 48.158264%, 92.74292%)" offset="0.457031"/><stop stop-opacity="1" stop-color="rgb(43.94989%, 47.683716%, 92.814636%)" offset="0.460938"/><stop stop-opacity="1" stop-color="rgb(44.496155%, 47.209167%, 92.886353%)" offset="0.464844"/><stop stop-opacity="1" stop-color="rgb(45.042419%, 46.734619%, 92.958069%)" offset="0.46875"/><stop stop-opacity="1" stop-color="rgb(45.587158%, 46.260071%, 93.028259%)" offset="0.472656"/><stop stop-opacity="1" stop-color="rgb(46.133423%, 45.785522%, 93.099976%)" offset="0.476562"/><stop stop-opacity="1" stop-color="rgb(46.679688%, 45.310974%, 93.171692%)" offset="0.480469"/><stop stop-opacity="1" stop-color="rgb(47.225952%, 44.836426%, 93.243408%)" offset="0.484375"/><stop stop-opacity="1" stop-color="rgb(47.770691%, 44.361877%, 93.315125%)" offset="0.488281"/><stop stop-opacity="1" stop-color="rgb(48.316956%, 43.888855%, 93.386841%)" offset="0.492188"/><stop stop-opacity="1" stop-color="rgb(48.86322%, 43.414307%, 93.457031%)" offset="0.496094"/><stop stop-opacity="1" stop-color="rgb(49.409485%, 42.939758%, 93.528748%)" offset="0.5"/><stop stop-opacity="1" stop-color="rgb(49.954224%, 42.46521%, 93.600464%)" offset="0.503906"/><stop stop-opacity="1" stop-color="rgb(50.500488%, 41.990662%, 93.67218%)" offset="0.507812"/><stop stop-opacity="1" stop-color="rgb(51.046753%, 41.516113%, 93.743896%)" offset="0.511719"/><stop stop-opacity="1" stop-color="rgb(51.593018%, 41.041565%, 93.815613%)" offset="0.515625"/><stop stop-opacity="1" stop-color="rgb(52.139282%, 40.567017%, 93.885803%)" offset="0.519531"/><stop stop-opacity="1" stop-color="rgb(52.685547%, 40.092468%, 93.95752%)" offset="0.523438"/><stop stop-opacity="1" stop-color="rgb(53.230286%, 39.61792%, 94.029236%)" offset="0.527344"/><stop stop-opacity="1" stop-color="rgb(53.77655%, 39.143372%, 94.100952%)" offset="0.53125"/><stop stop-opacity="1" stop-color="rgb(54.322815%, 38.668823%, 94.172668%)" offset="0.535156"/><stop stop-opacity="1" stop-color="rgb(54.86908%, 38.194275%, 94.244385%)" offset="0.539062"/><stop stop-opacity="1" stop-color="rgb(55.413818%, 37.719727%, 94.316101%)" offset="0.542969"/><stop stop-opacity="1" stop-color="rgb(55.960083%, 37.246704%, 94.387817%)" offset="0.546875"/><stop stop-opacity="1" stop-color="rgb(56.506348%, 36.772156%, 94.458008%)" offset="0.550781"/><stop stop-opacity="1" stop-color="rgb(57.052612%, 36.297607%, 94.529724%)" offset="0.554688"/><stop stop-opacity="1" stop-color="rgb(57.597351%, 35.823059%, 94.60144%)" offset="0.558594"/><stop stop-opacity="1" stop-color="rgb(58.143616%, 35.348511%, 94.673157%)" offset="0.5625"/><stop stop-opacity="1" stop-color="rgb(58.68988%, 34.873962%, 94.744873%)" offset="0.566406"/><stop stop-opacity="1" stop-color="rgb(59.236145%, 34.399414%, 94.816589%)" offset="0.570312"/><stop stop-opacity="1" stop-color="rgb(59.780884%, 33.924866%, 94.88678%)" offset="0.574219"/><stop stop-opacity="1" stop-color="rgb(60.327148%, 33.450317%, 94.958496%)" offset="0.578125"/><stop stop-opacity="1" stop-color="rgb(60.873413%, 32.975769%, 95.030212%)" offset="0.582031"/><stop stop-opacity="1" stop-color="rgb(61.419678%, 32.501221%, 95.101929%)" offset="0.585938"/><stop stop-opacity="1" stop-color="rgb(61.965942%, 32.026672%, 95.173645%)" offset="0.589844"/><stop stop-opacity="1" stop-color="rgb(62.512207%, 31.552124%, 95.245361%)" offset="0.59375"/><stop stop-opacity="1" stop-color="rgb(63.056946%, 31.077576%, 95.315552%)" offset="0.597656"/><stop stop-opacity="1" stop-color="rgb(63.60321%, 30.604553%, 95.387268%)" offset="0.601562"/><stop stop-opacity="1" stop-color="rgb(64.149475%, 30.130005%, 95.458984%)" offset="0.605469"/><stop stop-opacity="1" stop-color="rgb(64.69574%, 29.655457%, 95.530701%)" offset="0.609375"/><stop stop-opacity="1" stop-color="rgb(65.240479%, 29.180908%, 95.602417%)" offset="0.613281"/><stop stop-opacity="1" stop-color="rgb(65.786743%, 28.70636%, 95.674133%)" offset="0.617188"/><stop stop-opacity="1" stop-color="rgb(66.333008%, 28.231812%, 95.74585%)" offset="0.621094"/><stop stop-opacity="1" stop-color="rgb(66.879272%, 27.757263%, 95.817566%)" offset="0.625"/><stop stop-opacity="1" stop-color="rgb(67.424011%, 27.282715%, 95.887756%)" offset="0.628906"/><stop stop-opacity="1" stop-color="rgb(67.970276%, 26.808167%, 95.959473%)" offset="0.632813"/><stop stop-opacity="1" stop-color="rgb(68.516541%, 26.333618%, 96.031189%)" offset="0.636719"/><stop stop-opacity="1" stop-color="rgb(69.062805%, 25.85907%, 96.102905%)" offset="0.640625"/><stop stop-opacity="1" stop-color="rgb(69.607544%, 25.384521%, 96.174622%)" offset="0.644531"/><stop stop-opacity="1" stop-color="rgb(70.153809%, 24.909973%, 96.246338%)" offset="0.648438"/><stop stop-opacity="1" stop-color="rgb(70.700073%, 24.435425%, 96.316528%)" offset="0.652344"/><stop stop-opacity="1" stop-color="rgb(71.246338%, 23.960876%, 96.388245%)" offset="0.65625"/><stop stop-opacity="1" stop-color="rgb(71.792603%, 23.486328%, 96.459961%)" offset="0.660156"/><stop stop-opacity="1" stop-color="rgb(72.338867%, 23.013306%, 96.531677%)" offset="0.664063"/><stop stop-opacity="1" stop-color="rgb(72.883606%, 22.538757%, 96.603394%)" offset="0.667969"/><stop stop-opacity="1" stop-color="rgb(73.429871%, 22.064209%, 96.67511%)" offset="0.671875"/><stop stop-opacity="1" stop-color="rgb(73.976135%, 21.589661%, 96.7453%)" offset="0.675781"/><stop stop-opacity="1" stop-color="rgb(74.5224%, 21.115112%, 96.817017%)" offset="0.679688"/><stop stop-opacity="1" stop-color="rgb(75.067139%, 20.640564%, 96.888733%)" offset="0.683594"/><stop stop-opacity="1" stop-color="rgb(75.613403%, 20.166016%, 96.960449%)" offset="0.6875"/><stop stop-opacity="1" stop-color="rgb(76.159668%, 19.691467%, 97.032166%)" offset="0.691406"/><stop stop-opacity="1" stop-color="rgb(76.705933%, 19.216919%, 97.103882%)" offset="0.695312"/><stop stop-opacity="1" stop-color="rgb(77.250671%, 18.742371%, 97.174072%)" offset="0.699219"/><stop stop-opacity="1" stop-color="rgb(77.796936%, 18.267822%, 97.245789%)" offset="0.703125"/><stop stop-opacity="1" stop-color="rgb(78.343201%, 17.793274%, 97.317505%)" offset="0.707031"/><stop stop-opacity="1" stop-color="rgb(78.889465%, 17.318726%, 97.389221%)" offset="0.710938"/><stop stop-opacity="1" stop-color="rgb(79.434204%, 16.844177%, 97.460938%)" offset="0.714844"/><stop stop-opacity="1" stop-color="rgb(79.980469%, 16.371155%, 97.532654%)" offset="0.71875"/><stop stop-opacity="1" stop-color="rgb(80.526733%, 15.896606%, 97.60437%)" offset="0.722656"/><stop stop-opacity="1" stop-color="rgb(81.072998%, 15.422058%, 97.676086%)" offset="0.726562"/><stop stop-opacity="1" stop-color="rgb(81.619263%, 14.94751%, 97.746277%)" offset="0.730469"/><stop stop-opacity="1" stop-color="rgb(82.165527%, 14.472961%, 97.817993%)" offset="0.734375"/><stop stop-opacity="1" stop-color="rgb(82.710266%, 13.998413%, 97.889709%)" offset="0.738281"/><stop stop-opacity="1" stop-color="rgb(83.256531%, 13.523865%, 97.961426%)" offset="0.742188"/><stop stop-opacity="1" stop-color="rgb(83.802795%, 13.049316%, 98.033142%)" offset="0.746094"/><stop stop-opacity="1" stop-color="rgb(84.34906%, 12.574768%, 98.104858%)" offset="0.75"/><stop stop-opacity="1" stop-color="rgb(84.893799%, 12.10022%, 98.175049%)" offset="0.753906"/><stop stop-opacity="1" stop-color="rgb(85.440063%, 11.625671%, 98.246765%)" offset="0.757812"/><stop stop-opacity="1" stop-color="rgb(85.986328%, 11.151123%, 98.318481%)" offset="0.761719"/><stop stop-opacity="1" stop-color="rgb(86.532593%, 10.676575%, 98.390198%)" offset="0.765625"/><stop stop-opacity="1" stop-color="rgb(87.077332%, 10.202026%, 98.461914%)" offset="0.769531"/><stop stop-opacity="1" stop-color="rgb(87.623596%, 9.729004%, 98.53363%)" offset="0.773438"/><stop stop-opacity="1" stop-color="rgb(88.169861%, 9.254456%, 98.603821%)" offset="0.777344"/><stop stop-opacity="1" stop-color="rgb(88.716125%, 8.779907%, 98.675537%)" offset="0.78125"/><stop stop-opacity="1" stop-color="rgb(89.260864%, 8.305359%, 98.747253%)" offset="0.785156"/><stop stop-opacity="1" stop-color="rgb(89.807129%, 7.830811%, 98.81897%)" offset="0.789063"/><stop stop-opacity="1" stop-color="rgb(90.353394%, 7.356262%, 98.890686%)" offset="0.792969"/><stop stop-opacity="1" stop-color="rgb(90.899658%, 6.881714%, 98.962402%)" offset="0.796875"/><stop stop-opacity="1" stop-color="rgb(91.445923%, 6.407166%, 99.034119%)" offset="0.800781"/><stop stop-opacity="1" stop-color="rgb(91.992188%, 5.932617%, 99.105835%)" offset="0.804688"/><stop stop-opacity="1" stop-color="rgb(92.536926%, 5.458069%, 99.176025%)" offset="0.808594"/><stop stop-opacity="1" stop-color="rgb(93.083191%, 4.983521%, 99.247742%)" offset="0.8125"/><stop stop-opacity="1" stop-color="rgb(93.629456%, 4.508972%, 99.319458%)" offset="0.816406"/><stop stop-opacity="1" stop-color="rgb(94.17572%, 4.034424%, 99.391174%)" offset="0.820312"/><stop stop-opacity="1" stop-color="rgb(94.720459%, 3.559875%, 99.462891%)" offset="0.824219"/><stop stop-opacity="1" stop-color="rgb(95.266724%, 3.086853%, 99.534607%)" offset="0.828125"/><stop stop-opacity="1" stop-color="rgb(95.812988%, 2.612305%, 99.604797%)" offset="0.832031"/><stop stop-opacity="1" stop-color="rgb(96.359253%, 2.137756%, 99.676514%)" offset="0.835938"/><stop stop-opacity="1" stop-color="rgb(96.903992%, 1.663208%, 99.74823%)" offset="0.839844"/><stop stop-opacity="1" stop-color="rgb(97.450256%, 1.18866%, 99.819946%)" offset="0.84375"/><stop stop-opacity="1" stop-color="rgb(97.996521%, 0.714111%, 99.891663%)" offset="0.847656"/><stop stop-opacity="1" stop-color="rgb(98.542786%, 0.239563%, 99.963379%)" offset="0.851562"/><stop stop-opacity="1" stop-color="rgb(98.680115%, 0.119019%, 99.981689%)" offset="0.859375"/><stop stop-opacity="1" stop-color="rgb(98.81897%, 0%, 100%)" offset="0.875"/><stop stop-opacity="1" stop-color="rgb(98.81897%, 0%, 100%)" offset="1"/></linearGradient></defs><g clip-path="url(#0739213d92)"><rect x="-37.5" fill="url(#c5d8c661e6)" width="450" y="-37.499999" height="449.999989"/></g></svg>